<?xml version="1.0" encoding="utf-8"?>
<!-- Generator: Adobe Illustrator 24.2.3, SVG Export Plug-In . SVG Version: 6.00 Build 0)  -->
<svg version="1.1" xmlns="http://www.w3.org/2000/svg" xmlns:xlink="http://www.w3.org/1999/xlink" x="0px" y="0px"
	 viewBox="0 0 544.2 111.4" style="enable-background:new 0 0 544.2 111.4;" xml:space="preserve">
<g id="Layer_2">
</g>
<g id="Layer_1">
	<g id="KDJqsq.tif">
		<g>
			<path d="M239.7,0c0.3,0,0.5,0,0.8,0c0.4,0.5,0.9,1.4,1.2,1.3c1.8-0.3,3.5-0.8,5.3-1.3c0.4,0,0.8,0,1.1,0c2.3,1.4,3.9,3.2,4.4,6.1
				c0.2,1.4,1.4,2.6,2.3,3.9c1.1,1.8,1.9,3.5,1,5.7c-0.9,2-1.7,4.2-2.1,6.4c-0.5,2.3-1,4.3-3.3,5.4c-0.4,0.2-0.6,0.9-0.6,1.4
				c0,0.3,0.5,0.8,0.8,0.9c1.8,0.3,3.7,0.7,5.6,0.8c2.5,0.1,5.1-0.2,7.4,1.3c0.2,0.1,0.6,0.1,0.9,0.1c1.7-0.3,3.4-0.5,5.1-0.8
				c4.4-0.7,8.9-2,13.3-1.9c5.4,0,10.4-1.4,15.5-2.2c8.6-1.3,17-3.7,25.8-3.3c1,0,2.1-0.4,2.9-0.1c2,0.7,4.1,1.5,5.8,2.7
				c4,2.8,7.8,5.9,11.7,8.8c3.6,2.8,7.2,5.6,10.9,8.3c0.5,0.3,1.2,0.4,1.8,0.4c4.6,0.1,9.3,0.3,13.9,0.4c2.5,0,5.2,0.5,7.6-0.2
				c2.3-0.6,4,0,6,0.5c0.7,0.2,1.5,0.3,2.2,0.4c5.8,0.2,11.7,0.3,17.5,0.5c2.1,0.1,4.1,0.4,6.2,0.6c2,0.2,4,0.6,5.9,0.6
				c3.3,0,6.6-0.2,9.8-0.2c1.6,0,3.4,1,4.8,0.5c4.3-1.4,8.6-1.1,12.9-0.7c3.6,0.3,7.3,1.5,10.8,2.8c4.3,1.5,7.6,4.6,10.3,8.2
				c1.7,2.2,3,4.7,4.5,7c0.6,0.9,1.2,1.9,2.1,2.5c1.2,0.8,2.7,1.5,4.1,1.9c5.6,1.9,11.3,3.7,16.9,5.6c1.7,0.5,3.4,1.1,5.1,1.2
				c4.4,0.3,8.9,0.3,13.4,0.4c1.2,0,1.9,0.3,2.2,1.6c0.2,1,0.8,1.5,2,1.5c8.8,0.2,17.7,0.5,26.5,0.8c0.8,0,1.6,0.7,2.4,1.1
				c0,5.6,0,11.2,0,16.8c-0.1,0.1-0.3,0.3-0.3,0.4c-0.8,3.8-0.8,3.3-4.2,3.6c-5.3,0.5-10.7,0.5-16,0.4c-11-0.2-22-0.7-33-1
				c-4-0.1-4.4-0.5-3.7-4.5c0-0.2,0.1-0.4,0.3-1.1c-6.7,0-13.2,0-20.1,0c-2.6,4.4-6.7,8.2-11.5,11c-5.9,3.4-12.6,4.8-19.5,4.2
				c-5.5-0.5-10.7-1.9-15.1-5.6c-0.8-0.7-2-1.4-3-1.5c-4.4-0.1-7.9-2.5-11.3-4.6c-4.2-2.6-8-6-9.9-10.8c-1.3-3.2-2.3-6.5-3.6-10.1
				c-3.4,0-7.1,0-11.1,0c0.5,5.9,1,11.8,1.4,17.2c2,0.6,3.3,1,4.6,1.4c1.5,0.6,3,3.7,2.4,5.2c-0.1,0.4-0.7,0.7-1.1,0.8
				c-1.9,0.3-3.9,0.7-5.8,0.6c-4.6-0.1-9.1-0.5-13.7-0.7c-6-0.2-12.1-0.3-18.1-0.4c-9.4-0.2-18.8-0.5-28.2-0.8
				c-12.2-0.3-24.5-0.5-36.7-0.8c-6.4-0.1-12.8-0.3-19.3-0.4c-13.1-0.3-26.1-0.5-39.2-0.8c-8.1-0.2-16.2-0.2-24.3-0.4
				c-4.7-0.1-9.4-0.3-14.1-0.4c-13-0.4-26.1-0.8-39.1-1.1c-9-0.2-18.1-0.2-27.1-0.4c-3.6-0.1-7.2-0.5-10.9-0.6
				c-1.3,0-2.7,0.2-3.9,0.8c-1.5,0.7-2.7,1.9-4.1,2.7c-1.7,0.9-3.7,1.4-5.2,2.6c-1.5,1.2-2.9,1.6-4.7,1.5c-1.2-0.1-2.4-0.1-3.6,0
				c-0.9,0.1-2,0.3-2.7,0.9c-10,8-27.3,8.6-37.3,1.1c-5.6-4.2-10.4-8.8-13.1-15.3c-1.4-3.4-2.8-6.9-2-10.8c0.4-2,0.1-4.1,0.1-5.9
				c-0.8,0.4-1.4,1-2.1,1c-2.7,0-5.5-0.1-8.2-0.4c-4.1-0.5-5.9-2.9-5.6-7.1c0-0.5-0.4-1.1-0.7-1.6c-0.9-1.4-2.2-2.6-2.8-4.1
				c-1.7-4.4-3.2-8.9-4.8-13.3c-0.2-0.5-0.7-0.9-1.1-1.3c-0.8-0.8-1.9-1.5-2.3-2.4c-1.3-3.1-2.4-6.3-3.6-9.5
				C3.6,30.5,1.8,25.7,0,20.6c0.9,0,1.6,0,2.4,0c5.5,0,11.1,0.2,16.6-0.1c4.7-0.2,4.2,0,5.4-4c0.2-0.8,0.5-1.7,0.5-2.6
				c0.1-1.4,0.8-1.8,2.2-1.8c6.9,0.2,13.9,0.3,20.8,0.4c0.8,0,1.7-0.4,2.5-0.7c0.8-0.3,1.6-0.8,2.4-0.8c3.8,0,7.6,0.2,11.5,0.3
				c3.3,0.1,3.4,0.2,3.7,3.4c0,0.1,0.1,0.2,0.2,0.3c3.6,0.2,3.6,0.2,4.3,4.2c0,0.2,0.1,0.5,0.2,0.7c1.5,4.1,3,8.3,4.7,12.4
				c0.4,1,1.6,2.3,2.6,2.4c1.6,0.2,3.4-0.3,4.9-0.9c11.2-4.1,22.4-8.3,33.6-12.4c9.9-3.7,19.8-7.3,29.8-11c2.5-0.9,4.9-2,7.7-1.8
				c6.5,0.3,13.1,0.3,19.6,0.5c5.6,0.2,11.2,0.5,16.8,0.7c13.1,0.3,26.1,0.5,39.2,0.8c2,0,4-0.2,6.4-0.3c-1-2.5-1.9-4.7-2.8-6.9
				C236.8,2.3,239.3,2.5,239.7,0z M278.6,36.2c0,0.1,0,0.2,0,0.3c1.3,0.4,2.9,0.6,3.9,1.4c1.9,1.6,3.6,3.6,5.2,5.6
				c0.7,0.9,1.3,1.1,2.3,1.1c6.1,0.4,12.2-0.4,18.3,0.2c7.4,0.8,14.9,0.7,22.4,0.9c1.2,0,2.5-0.2,3.7-0.4c1.7-0.3,1.9-1.9,2.6-3.2
				c0.9-1.6,1-3.1-0.3-4.4c-1-1-2.5-1.5-3.5-2.5c-2.5-2.8-5.6-3.1-9-2.7c-0.8,0.1-1.6,0.2-2.3,0.3c-0.3-0.6-0.4-1-0.6-1.3
				c-1.4-2.1-5.2-3.1-8.4-2.4c-3.8,0.9-7.6,1.8-11.4,2.5C293.8,33.2,286.2,34.7,278.6,36.2z"/>
		</g>
	</g>
</g>
</svg>
