<svg id="Layer_1" data-name="Layer 1" xmlns="http://www.w3.org/2000/svg" viewBox="0 0 651.56 327.59"><defs><style>.cls-1{fill:none;stroke:#ff8b00;stroke-miterlimit:10;stroke-width:8px;}</style></defs><path id="austin" class="cls-1" d="M262.06,73.53c25.47-.29,101.63-1.39,155.4-5.74,50.62-4.09,127.07-15.65,149.3-20.32C587.3,43.17,618.55,37,628,34.8c8-1.88,19.24-5.69,22.12-1.55,2.75,3.94-3.78,12.6-10.76,19.6C610.78,81.46,579.6,113.63,566.64,127c-4.53,4.67-8.43,7.33-10.52,7.89-8.84,2.39-42.31,5.14-61.63,7.82-5.53.76-9.75-5.72-10.69-9.25s-5.36-8-10.75-10.4c-6.52-2.88-14.23-.48-16.5,1.43-3.82,3.22-8.31,9.64-14.7,15.3-4.41,3.91-8.73,7.54-12,9.09s-6.51,4.14-10.28,4.06c-6.21-.12-28.93-16.46-33.47-18.88a30.48,30.48,0,0,0-18.88-3.47c-6,.84-14.51,5.73-17.57,7.53-4.07,2.39-10.17,7.3-14.11,17-3.11,7.65-2.87,15.42-5.18,19.4-2.08,3.59-3.41,6.41-7.85,8.69C316,186.48,309,187.9,304,189.84a21.67,21.67,0,0,0-11.17,9.44c-1.62,3.35-3.08,6.95-6.28,13.95-2.63,5.78-8.46,9.48-14,13.07-5.8,3.76-46.61,20.81-55.59,27.61-10.36,7.84-12.56,16.58-13.27,18.65-2.93,8.58-2,16-.71,24.74,1.85,13,5.12,17.05,9,35.86,2.81,13.77,2,15.94.72,16.86-6.34,4.66-20.94-8.78-26.54-13.87-20.68-18.77-90.65-86-95.51-90.37-14.33-12.91-74-70.4-78.77-74.35-1.16-1-5.23-4.2-4.66-7.53.71-4.16,8.28-6,11.11-6.81,26.66-8,68.78-23.28,75-25.11,7.65-2.26,12.3-2.69,15.42,1.44,6.08,8,20.29,31.62,26.3,42.08,4.78,8.31,9.67,17.94,13.51,21.27a52.26,52.26,0,0,0,19.72,10.88c5.53,1.86,9.61,3.74,18.05,2.87,6.93-.72,21.2-6,27.49-9,5.86-2.75,10.52-13,14.71-23.31a26.5,26.5,0,0,0,.71-14C227,155,205.08,112.69,203.73,108c-.61-2.17-1.26-5.93.72-7.89,2.29-2.27,9.3.05,11.48.36,5.74.82,11.23,5.5,14.46,9.68,3.55,4.59,8.94,10.5,11,19.72,1.13,5.06,1.46,9,3.1,11.12,3.11,3.94,21.25,6,24,5.93,4.54-.07,7.57-.19,9.21-5.33s-13-27.94-15.19-32.16c-4.66-9.08-20.31-29.77-18.16-33.35C246.17,73.05,258.44,73.57,262.06,73.53Z" transform="translate(-3.16 -27.39)"/></svg>