<svg id="Layer_1" data-name="Layer 1" xmlns="http://www.w3.org/2000/svg" viewBox="0 0 649.83 420.97"><path id="baku" d="M38,193.38c9.49-7.55,21.1-11,46.55-20.13C96,169.17,99.11,168,121.05,159.07c7.7-3.13,18.19-5.81,23.74-3.12,3.76,1.82.22,11.87,4.74,18.56,3.31,4.89,21.83,2.05,27.86,4.75,5.5,2.45,5,7.81,6.46,17.89.65,4.51,2.49,14.71,3.77,23.45,1.43,9.74,3.36,11.42,5.26,12.24,5.84,2.52,11.54-5.36,41.52-24.93,12.74-8.33,39.63-23.55,45.18-27,3.32-2.06,8.87-5.83,10.87-8.69,1.61-2.32.44-5.33.8-10.18.57-7.89,33.51-23,57-32.14,20.93-8.17,33.17-11.64,60.84-21,12.17-4.14,30.84-10.12,36-11.67,4.41-1.32,11.94-3.63,13.16-8.24,1.73-6.54-5.5-18.44-8.88-25.49-7.94-16.6-13.31-29.86-9.88-37.18,3.06-6.54,9-6.12,37.74-14.53C522.52-1.52,540.82-8,553.51-12.5c10.77-3.78,27.68-9.38,32.6-11.32,16.59-6.54,21.94-6.47,24.7-5.46C616-27.4,621.5-3.08,622.71.2c4.46,12.12,8.68,23.58,13,33.63,4.59,10.58,12.15,30.47,11,37.4-1.26,7.43-18.74,9.62-45.18,17.5C569.16,98.38,537.44,109.28,505,119c-21.76,6.54-41.09,12-61.08,18.41-47.13,15.07-43.42,14.88-71.37,23.33-34.13,10.32-38.68,11.3-53.76,18.48-11.12,5.29-21.66,11.37-43.35,24.07-15.31,9-30.47,19.52-35.34,22.3-4.41,2.52-22.19,12-29.85,18.53-5.75,4.89-11.22,10.22-13,16.13-1.22,4-3.51,14.4-7.15,21.27-3.83,7.21-16.2,17-27.51,24S144.62,319,139.35,323.43c-12.86,10.9-17,18-18.07,20-2.09,3.82-6.23,13.82-8.69,19.1-4,8.54-8.28,19.81-13.15,20.59-7.9,1.26-33.83-18.23-42.21-23.67-18.37-11.94-35.11-21.62-35.11-21.62-4.15-2.4-14.84-9.13-16.24-12.47-2.34-5.55.8-38.06,1.37-61S29,200.54,38,193.38Z" transform="translate(-1.02 33.78)" style="fill:none;stroke:#ff8b00;stroke-miterlimit:10;stroke-width:8px"/></svg>