<?xml version="1.0" encoding="utf-8"?>
<!-- Generator: Adobe Illustrator 24.2.3, SVG Export Plug-In . SVG Version: 6.00 Build 0)  -->
<svg version="1.1" id="Layer_1" xmlns="http://www.w3.org/2000/svg" xmlns:xlink="http://www.w3.org/1999/xlink" x="0px" y="0px"
	 viewBox="0 0 656.4 383.2" style="enable-background:new 0 0 656.4 383.2;" xml:space="preserve">
<path style="fill:none;stroke:#FF8B00;stroke-width:8;stroke-miterlimit:10;" d="M71.7,206.3c8.4-6.7,18.7-9.8,41.4-17.9
	c10.2-3.6,12.9-4.7,32.4-12.6c6.8-2.8,16.2-5.2,21.1-2.8c3.3,1.6,0.2,10.5,4.2,16.5c2.9,4.3,19.4,1.8,24.8,4.2
	c4.9,2.2,4.4,6.9,5.7,15.9c0.6,4,2.2,13.1,3.4,20.8c1.3,8.6,3,10.1,4.7,10.9c5.2,2.2,10.3-4.8,36.9-22.2c11.3-7.4,35.2-20.9,40.1-24
	c2.9-1.8,7.9-5.2,9.7-7.7c1.4-2.1,0.4-4.7,0.7-9c0.5-7,29.8-20.4,50.6-28.6c18.6-7.3,29.5-10.3,54.1-18.7c10.8-3.7,27.4-9,32-10.4
	c3.9-1.2,10.6-3.2,11.7-7.3c1.5-5.8-4.9-16.4-7.9-22.7c-7.1-14.7-11.8-26.5-8.8-33c2.7-5.8,8-5.4,33.5-12.9
	c40.2-11.8,56.5-17.6,67.8-21.5c9.6-3.4,24.6-8.3,29-10.1c14.7-5.8,19.5-5.7,22-4.9c4.6,1.7,9.5,23.3,10.6,26.2
	c4,10.8,7.7,20.9,11.6,29.9c4.1,9.4,10.8,27.1,9.8,33.2c-1.1,6.6-16.6,8.5-40.1,15.5c-28.8,8.6-57,18.3-85.8,26.9
	c-19.3,5.8-36.5,10.7-54.3,16.4c-41.9,13.4-38.6,13.2-63.4,20.7c-30.3,9.2-34.4,10-47.8,16.4c-9.9,4.7-19.2,10.1-38.5,21.4
	c-13.6,8-27.1,17.3-31.4,19.8c-3.9,2.2-19.7,10.7-26.5,16.5c-5.1,4.3-10,9.1-11.6,14.3c-1.1,3.5-3.1,12.8-6.4,18.9
	c-3.4,6.4-14.4,15.1-24.4,21.3c-10.2,6.3-16,11.9-20.6,15.9c-11.4,9.7-15.1,16-16.1,17.8c-1.9,3.4-5.5,12.3-7.7,17
	c-3.5,7.6-7.4,17.6-11.7,18.3c-7,1.1-30.1-16.2-37.5-21c-16.3-10.6-31.2-19.2-31.2-19.2c-3.7-2.1-13.2-8.1-14.4-11.1
	c-2.1-4.9,0.7-33.8,1.2-54.2C44.9,249.1,63.7,212.6,71.7,206.3z"/>
</svg>
