<?xml version="1.0" encoding="utf-8"?>
<!-- Generator: Adobe Illustrator 24.2.3, SVG Export Plug-In . SVG Version: 6.00 Build 0)  -->
<svg version="1.1" id="Layer_1" xmlns="http://www.w3.org/2000/svg" xmlns:xlink="http://www.w3.org/1999/xlink" x="0px" y="0px"
	 viewBox="0 0 656.4 383.2" style="enable-background:new 0 0 656.4 383.2;" xml:space="preserve">
<path style="fill:none;stroke:#FF8B00;stroke-width:8;stroke-miterlimit:10;" d="M33.7,118.2c13.9-10.9,31.4-16.2,33.1-16.7
	c6.9-2,13.4-3.8,43.8-3.9c54.6-0.3,48.9-0.1,63.6-0.3c0,0,13.1,0.1,33.1,0.1c2.4,0,6.8,0.9,11.3,3.9c6.1,3.9,8.7,9.6,9.4,11.3
	c3.9,8.9,1.8,17.2,0.9,20.7c-0.8,2.9-3,8.1-7.1,13.2c-3.3,4.1-5.7,6.8-10.2,9.8c-2.7,1.8-6.9,3.9-12.4,5.9c-5.9,2.2-10.9,3-13.9,3.2
	c-15.3,0.7-30.6,0-33,0.1c-7.6,0.2-36.2-0.3-55-0.1c-2.7,0-7.2,1.7-11.2,5.4C82,174.6,82,180,82,181.3c-0.2,6,2.6,10.4,3.9,11.7
	c3.6,3.5,5.3,4.5,11.5,8.2c4.9,3,3.2,2.6,13.4,9.4c3.7,2.5,9.2,6.1,20.4,13.3c12.1,7.8,18.2,11.7,22.8,13.9c7.5,3.6,12.9,5.3,15.4,6
	c3.8,1.1,8.4,2.5,15.1,3c18.5,1.3,19.4,1.1,36.2,1.1c8.3,0,13.7,0.3,22.1-0.6c2.2-0.2,7.7-3.7,8.8-4.7c0.9-0.9,4.4-4,5-9.7
	c0.5-5.3,0.3-11.3,0.8-21c0.3-5.6,2.1-9.7,4-14.2c3.3-7.5,8.2-13.3,14.5-22.1c5.1-7,7.8-13.3,16.3-24.6
	c11.9-15.8,13.1-19.1,20.3-28.8c3.2-4.3,10.2-10.2,16.1-12.3c5.9-2.1,15.4-3.1,20.5-3c6.5,0.2,10.7,1.7,18.1,4.9
	c2.8,1.2,20.2,12.5,22.2,13.7c2.2,1.3,42.4,24.7,48.7,28.8c6.3,4.1,43.8,26.3,48.3,28.9c5.7,3.4,25.9,15.7,35.2,21
	c13.6,7.7,24.5,14.3,40.1,24.2c2.7,1.7,8.2,5.5,14.4,4.2c7.7-1.5,11.5-9.6,11.7-10c1.8-3.8,1.5-7.1,1.1-13.6
	c-0.3-4.4-0.6-9.5-3.2-15.5c-3-7.1-7.4-11.5-10.1-14.2c-6.1-5.9-12.2-8.9-15-10.2c-1.3-0.6-5.3-2-13.2-4.9
	c-9.5-3.4-10.6-3.7-12.8-5.2c-5.1-3.6-7.7-8.3-8.8-10.6c-3.1-6.5-2.9-12.4-2.6-15c0.2-2.2,1-8.6,6-14.6c0.9-1,5.6-6.5,13.9-8.7
	c2.8-0.7,6.8-1.2,15.4,0.4c9.1,1.8,11.8,3.7,26,8.8c12.2,4.4,18.3,6.6,22.8,7.6c4.7,1,9.2,3.2,13.8,4.5c1.7,0.5,4.3,1.2,6.4,3.4
	c1.7,1.8,2.8,3.9,2.7,5.7c-0.3,7-0.6,11.6-0.8,16.1c-0.1,2.7-1.4,24.1-2.1,28.4c-0.6,3.3-0.4,6.1-0.7,9.5c-0.3,2.7,1,5.3,4.5,6
	c0.6,0.1,1.8,0.8,8.8,1.4c3.3,0.3,4.2,0.3,5.2,1c1.7,1.2,2.6,3.1,2.6,4.6c0,6.9-0.5,18.1-0.5,19.8c-0.1,3.4,0.5,15.4,0.1,20.6
	c-0.3,3.6-0.8,6.4-2.2,10c-1.4,3.5-3.2,6-5.2,8.8c-2.2,3.2-3.6,5.1-6,7.4c-3.4,3.2-6.7,4.8-9.9,6.4c-2.5,1.2-5.4,2.6-9.3,3.5
	c-5,1.1-9,1.4-10.4,1.5c-5.8,0.1-32.4-0.3-34.5-0.3c-3.1-0.1-48.4-0.1-53.2-0.1c-21.1,0.1-36.7,0.1-52.4,0.1c-21.1,0-25.9,0-66.1,0
	c-62.8,0-59,0-80.5,0c-30-0.1-35.1-0.1-54.9-0.1c-31.9,0.1-28,0.3-53.5,0.3c-66.6,0.1-75.7-0.3-79.3-0.3c-3.6,0.1-8.5,0.4-17.9,0
	c-2.5-0.1-5.7-0.3-9-2.2c-3.1-1.9-4.8-4.5-5.8-6.2c-0.7-1.1-3.3-4.7-3.7-11.1c-0.2-3.9,0.2-8.2-0.1-16c-0.2-5-2.5-9.3-2.9-10
	c-0.4-0.8-2.4-4.1-6.7-7.6c-3.4-2.8-6.4-4.1-12.4-6.6c-10.7-4.5-16.8-6.8-16.8-6.8c-13.2-5-13.9-5-17.4-7c-7.3-4-11.5-8-13.1-9.6
	c-3.5-3.5-5.6-6.6-6.3-7.6c-3.1-4.7-4.5-8.7-5.4-11.2c-2.5-7-3.2-13.2-3.3-17.5c-0.1-3.4-0.3-7.5,0.9-12.7c1.3-5.4,3.3-9.2,5.6-13.5
	c1.2-2.2,3.3-6,6.7-10.4C26.8,123.7,31.3,120.1,33.7,118.2z"/>
</svg>
