<svg id="Layer_1" data-name="Layer 1" xmlns="http://www.w3.org/2000/svg" viewBox="0 0 646.71 196.66"><path id="barcelona" d="M33.41,117.07C47.3,106.15,64.85,100.9,66.55,100.4c6.92-2,13.4-3.8,43.8-3.94,54.64-.26,48.86-.12,63.63-.29,0,0,13.06.09,33.06.09a22.56,22.56,0,0,1,11.34,3.86,26,26,0,0,1,9.45,11.34c3.93,8.9,1.77,17.2.85,20.69a39,39,0,0,1-7.12,13.23c-3.31,4.13-5.72,6.79-10.22,9.79A65.6,65.6,0,0,1,199,161.09a47.07,47.07,0,0,1-13.91,3.18c-15.28.75-30.56,0-33,.08-7.65.18-36.16-.34-55-.08-2.65,0-7.2,1.69-11.25,5.41-4.21,3.86-4.15,9.26-4.21,10.56a16.66,16.66,0,0,0,3.87,11.68c3.6,3.51,5.33,4.48,11.5,8.24,4.88,3,3.17,2.58,13.4,9.45,3.74,2.51,9.19,6.08,20.44,13.31,12.07,7.77,18.21,11.7,22.84,13.91a100.2,100.2,0,0,0,15.37,6,65.7,65.7,0,0,0,15.11,3c18.55,1.29,19.42,1.09,36.15,1.11,8.34,0,13.74.35,22.08-.58,2.22-.24,7.71-3.72,8.75-4.74a15.18,15.18,0,0,0,5-9.7c.54-5.34.26-11.34.78-21,.29-5.55,2.06-9.65,4-14.17,3.27-7.47,8.19-13.34,14.51-22.06,5.07-7,7.8-13.28,16.32-24.56,11.94-15.8,13.13-19.13,20.27-28.77,3.17-4.3,10.21-10.22,16.12-12.28s15.37-3.14,20.54-3c6.53.18,10.75,1.74,18.12,4.9,2.83,1.21,20.23,12.54,22.16,13.74,2.18,1.35,42.43,24.7,48.69,28.76s43.79,26.26,48.26,28.94c5.7,3.43,25.93,15.72,35.2,21,13.6,7.68,24.46,14.28,40.11,24.21,2.71,1.72,8.17,5.47,14.42,4.21,7.68-1.55,11.5-9.56,11.68-10,1.76-3.83,1.54-7.08,1.12-13.57-.29-4.43-.63-9.5-3.18-15.54a42.18,42.18,0,0,0-10.13-14.17,53.2,53.2,0,0,0-15-10.22c-1.33-.63-5.29-2-13.22-4.89-9.46-3.4-10.62-3.71-12.8-5.24a27.58,27.58,0,0,1-8.84-10.56,28.11,28.11,0,0,1-2.58-15,26.81,26.81,0,0,1,6-14.6,27.48,27.48,0,0,1,13.91-8.67c2.81-.72,6.77-1.24,15.37.43,9.1,1.76,11.76,3.72,26,8.84,12.2,4.39,18.31,6.58,22.76,7.56,4.73,1,9.16,3.18,13.82,4.46a12.7,12.7,0,0,1,6.44,3.44c1.68,1.81,2.84,3.86,2.75,5.67-.34,7-.63,11.62-.77,16.14-.09,2.75-1.4,24.09-2.15,28.42-.57,3.34-.43,6.14-.75,9.54a5.26,5.26,0,0,0,4.53,6c.62.12,1.79.78,8.76,1.37,3.27.28,4.16.26,5.24,1a6,6,0,0,1,2.57,4.64c0,6.87-.48,18.11-.51,19.75-.06,3.35.47,15.38.08,20.61a30.45,30.45,0,0,1-2.23,10,42.41,42.41,0,0,1-5.15,8.84,40.74,40.74,0,0,1-6,7.39,37.86,37.86,0,0,1-9.88,6.35,40.07,40.07,0,0,1-9.27,3.52,55.4,55.4,0,0,1-10.39,1.46c-5.84.05-32.38-.25-34.52-.34-3.13-.13-48.43-.1-53.16-.09-21.12.06-36.67.08-52.38.09-21.12,0-25.87,0-66.12,0-62.77,0-59,0-80.46,0-30-.06-35.1-.14-54.87-.09-31.85.09-28,.32-53.5.35-66.59.07-75.74-.35-79.26-.26s-8.46.36-18,0a15.77,15.77,0,0,1-14.86-8.42A21.79,21.79,0,0,1,93.09,265c-.24-3.95.23-8.25-.08-16a24.25,24.25,0,0,0-2.92-10,28.84,28.84,0,0,0-6.7-7.65C80,228.54,77,227.22,71,224.72c-10.7-4.45-16.83-6.78-16.83-6.78-13.19-5-13.94-5.05-17.43-7a56.87,56.87,0,0,1-13.14-9.61,50.12,50.12,0,0,1-6.27-7.65,49.15,49.15,0,0,1-5.41-11.16A59.2,59.2,0,0,1,8.59,165a45.35,45.35,0,0,1,.95-12.71c1.25-5.42,3.29-9.21,5.58-13.48a67.3,67.3,0,0,1,6.7-10.39A65.84,65.84,0,0,1,33.41,117.07Z" transform="translate(-4.52 -92.17)" style="fill:none;stroke:#ff8b00;stroke-miterlimit:10;stroke-width:8px"/></svg>