<svg id="Layer_1" data-name="Layer 1" xmlns="http://www.w3.org/2000/svg" width="656.37" height="383.19" viewBox="0 0 656.37 383.19"><defs><style>.cls-1{fill:none;stroke:#ff8b00;stroke-miterlimit:10;stroke-width:8px;}</style></defs><path id="brazil" class="cls-1" d="M95.6,98.94c28.9-9.47,73.86-20.92,80.6-22.8,8.12-2.26,89.68-23.83,98.6-26.36,8.43-2.38,24.31-7.75,46.86-12a261.22,261.22,0,0,1,36.61-4.5c18.94-1,61.17,11.08,72.12,13.16,7.18,1.36,35.08,7.19,65.79,14.14,13.49,3,26.11,11,35.16,18.78,11.4,9.8,22.26,31.47,29.33,49.77,7.7,19.95,9.59,33.77,11.45,43.51s2.47,14.77,2.47,22.32c0,4.16-10.6,30.83-14,40-3.65,9.77-8.95,14.64-13,14.74-7.67.19-19.19-8.26-26.06-12.25-8.42-4.9-34.71-21.27-45.35-28-10.41-6.6-14.54-10.32-19.1-16-2.53-3.11-10-12.62-10.12-29.32-.16-21.51,10.28-30.9,18.62-38.21,4-3.5,21.24-20.26,26.17-24.08s8.34-7.71,7.23-13.33a17.42,17.42,0,0,0-5-8.48c-2.54-2.11-12-.88-17.34.29-23.43,5.17-20.2,4-24.56,6.27-8,4.1-13.22,7.38-16.86,10.76-4.92,4.55-17.87,17.44-21.84,21.83-5.94,6.58-10.51,10.06-17,11.4-5.46,1.12-11.47.79-18.79-6.1-.71-.68-6.58-7.87-6.26-15.25.26-6,2.64-12.07,10.28-21,3.69-4.33,5.52-12.36,5.61-15.09.17-4.49-2.4-8.19-8.83-10-6.26-1.73-17.95-.84-23.76.32-24.17,4.83-6.46,2-27.13,5.46-14.29,2.41-17.95,3.89-23.92,8.67-8,6.42-14.93,24.18-15.74,29.86-.66,4.69-2.42,19.41,3.7,30.5,5.13,9.32,27.17,23.67,34,28.58,8.37,6,86.88,62.15,96.33,69,18.93,13.8,24.41,23,28.74,40.78,1.32,5.43,1.4,19.18-1.76,34.36-1.54,7.37-3.82,23.13-5.78,27.61-1.59,3.63-6.26,11.88-12.85,13.49-7.24,1.77-24.43-2.74-28.9-3.85C393.59,346,245.77,307.1,238,305.41c-8.9-1.93-86.14-22.24-109-28.74-15.25-4.33-28.58-15.57-38-28.58-1.78-2.44-13.52-26.53-11.4-43.35,2.25-17.82,9.14-27.34,10.92-30.18,3.36-5.36,7.53-12.05,7.38-17.5-.32-11.72-15.13-19.26-19.75-23.44s-6.67-11.29-5.62-17.5C73.77,108.57,89,101.11,95.6,98.94Z"/></svg>