<svg id="Layer_1" data-name="Layer 1" xmlns="http://www.w3.org/2000/svg" width="579.11" height="370.64" viewBox="0 0 579.11 370.64"><defs><style>.cls-1{fill:none;stroke:#ff8b00;stroke-miterlimit:10;stroke-width:8px;}</style></defs><path id="brazil" class="cls-1" d="M66.63,85c32.85-10.77,84-23.78,91.62-25.92,9.23-2.58,101.95-27.1,112.09-30,9.59-2.72,27.64-8.81,53.27-13.66a295,295,0,0,1,41.62-5.11c21.53-1.1,69.54,12.59,82,15,8.16,1.55,39.88,8.18,74.79,16.08,15.33,3.46,29.68,12.51,40,21.35,13,11.13,25.31,35.77,33.34,56.58,8.75,22.67,10.9,38.38,13,49.46,2.09,10.93,2.8,16.79,2.8,25.37,0,4.73-12,35-15.94,45.45C591,250.64,585,256.18,580.37,256.3c-8.72.21-21.82-9.4-29.62-13.93-9.58-5.57-39.46-24.18-51.56-31.85-11.83-7.51-16.52-11.73-21.71-18.14-2.87-3.54-11.36-14.35-11.5-33.33-.19-24.46,11.68-35.13,21.17-43.44,4.55-4,24.14-23,29.75-27.38s9.48-8.77,8.21-15.15a19.66,19.66,0,0,0-5.66-9.64c-2.89-2.4-13.66-1-19.71.33-26.64,5.88-23,4.58-27.92,7.12-9.09,4.66-15,8.4-19.17,12.23-5.59,5.18-20.32,19.83-24.82,24.82-6.75,7.49-12,11.44-19.35,13-6.2,1.28-13,.9-21.35-6.93-.81-.77-7.48-9-7.12-17.34.3-6.85,3-13.72,11.68-23.91,4.2-4.93,6.28-14,6.39-17.16.18-5.11-2.74-9.31-10-11.31-7.12-2-20.41-1-27,.36-27.48,5.49-7.34,2.25-30.85,6.21-16.24,2.73-20.4,4.42-27.19,9.85-9.13,7.3-17,27.5-17.89,34-.75,5.33-2.75,22.07,4.2,34.68,5.84,10.58,30.9,26.91,38.69,32.49,9.51,6.8,98.77,70.64,109.51,78.48,21.52,15.68,27.75,26.1,32.67,46.36,1.51,6.17,1.59,21.81-2,39.06-1.75,8.37-4.34,26.29-6.57,31.39-1.81,4.12-7.12,13.51-14.6,15.33-8.24,2-27.78-3.11-32.86-4.38-8.76-2.19-176.79-46.45-185.62-48.37-10.11-2.19-97.93-25.28-123.93-32.67-17.33-4.93-32.48-17.7-43.25-32.49-2-2.77-15.37-30.16-13-49.27,2.55-20.26,10.39-31.09,12.41-34.32,3.82-6.09,8.57-13.7,8.4-19.89-.37-13.33-17.21-21.9-22.45-26.65s-7.59-12.83-6.39-19.89C41.81,95.9,59.11,87.41,66.63,85Z" transform="translate(-36.03 -6.24)"/></svg>