<svg id="Layer_1" data-name="Layer 1" xmlns="http://www.w3.org/2000/svg" width="656.37" height="383.19" viewBox="0 0 656.37 383.19"><path d="M160.84,29.66c2.45,3.56,8.68,10.61,14.3,26.18a115.51,115.51,0,0,1,4.14,16c1.67,8.54.37,38.42.77,57,.39,17.87,0,26.77-.25,39.48-.13,7.71,7.88,16.11,11.09,17.81a20,20,0,0,0,17.81,0c5-2.54,7.45-7.32,12.13-16.78.91-1.84,3.33-6.86,11.35-26.32,2-5,3.18-7.8,6.2-10.32,4.09-3.42,9.13-3.7,14.93-4.87,5.19-1.06,92.52-19.14,100.42-20.68,10.92-2.13,30.32-7.39,42.32-6.69,4.91.29,20.52,1,26.84.75,2.13-.08,10.91-11.63,28.42-35.42,8.86-12,12.29-17.12,14.94-20.32,4.27-5.16,12.81-10.35,21.68-9,13.2,2,19.8,12.81,20.67,22.39.59,6.47,2.7,19.54.47,33.58-2.17,13.58-5.26,33.28-7.26,47.22-.23,1.58-.95,10.84-3.3,13.2-3.78,3.77-9.43,1.41-14.71,2.58-4.81,1.06-22.2,25.23-38.46,49-1.17,1.72-3.16,4.39-2.83,8,.38,4.32,3.86,10.83,10.06,20.64,6.94,11,10.08,16.89,9.77,22.39s-3,10-9.77,15.81c-3.55,3.05-46.9,25.6-53.68,32.51-6.42,6.55-10.6,19.09-13.38,29-3.48,12.41-7.57,23.77-9.78,28.26-3.19,6.49-10.5,9.56-13.74,10.87-10.45,4.25-53-1-83.61-2.58-16.36-.84-66.23-3.84-69.2-5-5-1.94-6.06-7.11-5.8-11.42.38-6.48,9.42-45.87,7.55-66.87-1.42-15.94-10.62-18.84-12-19.06a17.16,17.16,0,0,0-14.81,4.64c-2.9,3-5,6.74-5.1,19.78-.08,7.71.21,33.73.07,44.38-.07,4.94-4.65,14.52-10.65,18.33a27.84,27.84,0,0,1-16.26,3.61c-12.24-1.13-19.78-13-20.64-16.77-1.32-5.84-.84-32.94-1-51.36-.09-8.69.19-33.35.51-83.61.24-36.78-.13-170.49.26-184,.13-4.45,1-10.9,9-11.43C149.47,10,159.16,27.22,160.84,29.66Z" style="fill:none;stroke:#ff8b00;stroke-miterlimit:10;stroke-width:8px"/></svg>