<svg id="Layer_1" data-name="Layer 1" xmlns="http://www.w3.org/2000/svg" viewBox="0 0 649.03 365.27"><path id="imola" d="M168.17,67.72c1.3-2.08,3.27-3.37,18.65-7.64,9.15-2.54,13-4.28,19.65-5.65,5.52-1.14,10-1.64,20.4-3.09,13-1.81,26-3.69,43.19-5.48,10.25-1.07,15.44-1.37,21-1.51a204.41,204.41,0,0,1,29.08,1.28c10.73,1.21,20,3.3,27.92,4.6,6.42,1.05,8.51,1.59,17,3.15,6,1.11,11.09,2.23,16.2,3.09,7.71,1.29,11.39,1.91,13.46,2.16a120.27,120.27,0,0,0,20.75.46c11.19-.45,22.33-.87,33.52-1.22,12.41-.39,24.77-.29,37.16-.47,7.77-.11,14.37-1.1,24.51-1.69a44.22,44.22,0,0,0,14.74-3.47c14.17-5.79,73.33-31.73,90.41-38.73a18,18,0,0,1,7.92-1.63,11.54,11.54,0,0,1,6.94,2.86c7.52,6.7,9.6,15,17,31.53a10.4,10.4,0,0,1,.5,5.89c-.84,3.76-5.22,5.35-7.06,6.18-12.94,5.85-38.21,18.51-40.21,19.41a52.68,52.68,0,0,0-9.53,5.42,74.59,74.59,0,0,0-10.23,8.74c-12.38,13.58-37.61,41.12-46.63,49.25-11.52,10.38-17,14.66-25.24,21-6.62,5.08-12.48,9-25.65,14.71-16.86,7.29-14.42,6.33-24,10.64-15.57,7-20.31,11.64-26.51,10.95-3.39-.37-2.43-3.6-6.37-8.24-2-2.4-9.32-1.49-14.68-1.4-9.89.17-32.18,1.23-39.44,1.4s-22.93,1.57-52,2.39c-16.94.48-29,1.33-39.84,1.63-4.12.12-8.19.89-11.8-.08-1.51-.41-7.26-3.14-15-6-1.39-.52-5.86-2.18-8.39,2.28-7.26,12.75-16.32,28.33-16.73,29.49-.76,2.16-.64,4.52.29,9.76,2,11.37,8,29.73,14.05,52.84,1.27,4.84,1.64,13.87,1.4,21.86-.34,11-3.68,19.24-6,25.7-2.68,7.64-4.88,11.44-9.27,19.06A18,18,0,0,1,221.1,357a16,16,0,0,1-9.45,1.57c-11.9-1.6-40.92-6.28-46.86-7.08a148.43,148.43,0,0,0-27-1.31c-9,.41-10,1.56-32.87,5.25C87.2,358.28,87,357.88,72,360.5c-5.18.9-15.54,2.91-21.69,4-7.54,1.36-15.21,2.63-22.76,4a28.87,28.87,0,0,1-11.95.06,9.82,9.82,0,0,1-6.29-4.72c-2.93-4.81-2.13-10.52-.7-12.5,5.59-7.78,12.94-13.21,32.44-31.22,23.19-21.43,7.6-6.21,31.62-28a13.84,13.84,0,0,0,2.91-6c.79-4.37-2-11.06-2.62-12.85-2.18-6.51-4.55-9.11-3.5-16.61,1.75-12.54,10-29.92,20-58.81,7.88-22.71,21.34-57.82,28.51-78a27.33,27.33,0,0,1,7.17-10.14c2.84-2.65,4.84-3.45,15-8.22,12.42-5.82,15.06-7.25,18.19-10.14a26.18,26.18,0,0,0,6.64-8.4C168.42,75.74,165.34,72.26,168.17,67.72Z" transform="translate(-3.35 -7.87)" style="fill:none;stroke:#ff8b00;stroke-miterlimit:10;stroke-width:8px"/></svg>