<?xml version="1.0" encoding="utf-8"?>
<!-- Generator: Adobe Illustrator 24.2.3, SVG Export Plug-In . SVG Version: 6.00 Build 0)  -->
<svg version="1.1" id="Layer_1" xmlns="http://www.w3.org/2000/svg" xmlns:xlink="http://www.w3.org/1999/xlink" x="0px" y="0px"
	 viewBox="0 0 656.4 383.2" style="enable-background:new 0 0 656.4 383.2;" xml:space="preserve">
<path style="fill:none;stroke:#FF8B00;stroke-width:8;stroke-miterlimit:10;" d="M168.6,67.2c1.3-2.1,3.3-3.4,18.7-7.6
	c9.2-2.5,13-4.3,19.6-5.7c5.5-1.1,10-1.6,20.4-3.1c13-1.8,26-3.7,43.2-5.5c10.3-1.1,15.4-1.4,21-1.5c12.8-0.3,22.6,0.5,29.1,1.3
	c10.7,1.2,20,3.3,27.9,4.6c6.4,1,8.5,1.6,17,3.1c6,1.1,11.1,2.2,16.2,3.1c7.7,1.3,11.4,1.9,13.5,2.2c8.4,1,14.7,0.7,20.8,0.5
	c11.2-0.5,22.3-0.9,33.5-1.2c12.4-0.4,24.8-0.3,37.2-0.5c7.8-0.1,14.4-1.1,24.5-1.7c6.9-0.4,11.9-2.3,14.7-3.5
	C540,45.9,599.2,20,616.2,13c1.1-0.4,3.9-1.8,7.9-1.6c3.4,0.1,6,2,6.9,2.9c7.5,6.7,9.6,15,17,31.5c0.4,1,1,3.4,0.5,5.9
	c-0.8,3.8-5.2,5.3-7.1,6.2c-12.9,5.9-38.2,18.5-40.2,19.4c-1.9,0.8-5.4,2.5-9.5,5.4c-5,3.6-9.1,7.5-10.2,8.7
	c-12.4,13.6-37.6,41.1-46.6,49.3c-11.5,10.4-17.1,14.7-25.2,21c-6.6,5.1-12.5,9-25.6,14.7c-16.9,7.3-14.4,6.3-24,10.6
	c-15.6,7-20.3,11.6-26.5,11c-3.4-0.4-2.4-3.6-6.4-8.2c-2-2.4-9.3-1.5-14.7-1.4c-9.9,0.2-32.2,1.2-39.4,1.4c-7.3,0.2-22.9,1.6-52,2.4
	c-16.9,0.5-29,1.3-39.8,1.6c-4.1,0.1-8.2,0.9-11.8-0.1c-1.5-0.4-7.3-3.1-15-6c-1.4-0.5-5.9-2.2-8.4,2.3
	c-7.3,12.8-16.3,28.3-16.7,29.5c-0.8,2.2-0.6,4.5,0.3,9.8c2,11.4,8,29.7,14,52.8c1.3,4.8,1.6,13.9,1.4,21.9
	c-0.3,11-3.7,19.2-5.9,25.7c-2.7,7.6-4.9,11.4-9.3,19.1c-2.3,4-4.7,6.1-8.3,7.9c-4,2-7.5,1.8-9.4,1.6c-11.9-1.6-40.9-6.3-46.9-7.1
	c-5.7-0.8-15.2-1.8-27-1.3c-9,0.4-10,1.6-32.9,5.2c-17.7,2.9-17.9,2.5-32.9,5.1c-5.2,0.9-15.5,2.9-21.7,4c-7.5,1.4-15.2,2.6-22.8,4
	c-3.9,0.7-6.8,1-11.9,0.1c-1-0.2-4.1-1.1-6.3-4.7c-2.9-4.8-2.1-10.5-0.7-12.5c5.6-7.8,12.9-13.2,32.4-31.2
	c23.2-21.4,7.6-6.2,31.6-28c0.6-0.6,2.4-3.3,2.9-6c0.8-4.4-2-11.1-2.6-12.9c-2.2-6.5-4.5-9.1-3.5-16.6c1.8-12.5,10-29.9,20-58.8
	c7.9-22.7,21.3-57.8,28.5-78c0.9-2.5,3.1-6.4,7.2-10.1c2.8-2.6,4.8-3.4,15-8.2c12.4-5.8,15.1-7.2,18.2-10.1c2.2-2,4.8-4.4,6.6-8.4
	C168.9,75.2,165.8,71.8,168.6,67.2z"/>
</svg>
