<svg id="Layer_1" data-name="Layer 1" xmlns="http://www.w3.org/2000/svg" viewBox="0 0 656.37 383.19"><path id="jeddah" d="M7.07,372.63c-4.46-5-3.31-11.93-3.1-13.16a18.29,18.29,0,0,1,5.42-10.06c3.59-3.34,7.47-4.05,11.22-5,7.17-1.87,13.68-5.69,20.52-8.51,13.49-5.56,24.72-10.81,30.58-13.55,10.51-4.92,13-6.4,19.74-8.9,4-1.49,4.75-1.58,15.49-5.42,3.9-1.4,5.49-2,8.13-2.71A76.46,76.46,0,0,1,127.84,303c11.49-1.16,12.14,1,20.13,0,11.74-1.5,12.68-6.49,19.35-5,4,.88,3.9,2.74,15.49,11.23,6.28,4.6,9.48,6.91,12.39,7.35,2.1.32,2.56-.06,17-4.25,5.43-1.58,8.17-2.34,12-4.26s5.94-3,7.74-5.42c2.2-2.94,1.35-4.44,3.48-11.23,1.45-4.59,2.35-7.46,4.65-10.45,2.73-3.54,5.9-5.29,9.68-7.35A33.8,33.8,0,0,1,261,269.28c2-.34,3.95-.45,12.39.38,13,1.28,12.26,1.92,15.1,1.55,8.36-1.08,14.05-6.58,15.87-8.51a24.77,24.77,0,0,0,6.58-11.62c1.7-7.66-2.12-10.81.38-15.09,2-3.43,5.33-2.91,13.17-6.2,5.57-2.33,5-3.07,16.64-10.06,12-7.2,11.05-5.5,19.36-10.84,6.7-4.31,9.81-7,17.41-10.84,4.79-2.4,7.55-3.33,10.46-3.87,3.29-.61,4.1-.21,12-.39,9.31-.2,11.68-.83,13.54-1.54,2.34-.9,6.85-2.62,7.36-5.81.15-.95-.08-1.88-3.48-7.36s-3.69-5.36-3.88-6.19c-1.27-5.65,12.86-13.13,20.52-17.81,11.17-6.81,6-6.1,33.68-29.41,18.53-15.62,18.66-14.1,39.09-31,23-19,21.14-19.52,34.84-29.81C567.21,46,567.82,52,588.1,35.86c11.31-9,24.94-21.92,44.9-30.19,4.36-1.81,11.74-4.52,16-1.17,1.11.88,3.61,3.46,3,13.17-.71,11.58-5,19.66-7.74,25.54-8.46,18.11-3.65,18.34-11.23,34.84-7.32,16-16.71,26.42-23.23,33.68-9.75,10.88-18.36,17.54-26.7,24-14.73,11.39-22.09,17.09-32.91,20.9-15.51,5.47-29.63,4.76-37.93,4.26-18.47-1.1-21.79-5.83-37.16-3.87a68.24,68.24,0,0,0-24.39,8.13c-6.56,3.68-11.31,6.35-14.32,12-3.17,5.93-1.3,9.28-5,15.48a26.83,26.83,0,0,1-10.45,9.68c-9.31,4.85-14.34-.11-27.48,2.32-5.62,1-10.72,3.67-20.9,8.91s-16.1,8.28-22.46,13.93-5.66,7.28-18.58,23.23c-7.5,9.27-11.26,13.9-15.09,17-7.42,6-14.22,8.72-27.49,13.93-16,6.28-16.64,4.55-24,8.91-4.9,2.9-10.43,8.3-21.29,19-13.4,13.17-12.45,13.33-17.42,17-9.51,7.07-18.19,10.29-25.93,13.16-8.52,3.16-12.15,3.48-14.71,3.48-3.85,0-11.61,0-16.65-5-4-4-2.72-7.54-7.35-10.84a15.77,15.77,0,0,0-8.91-2.71c-6.25-.08-8.77,3.51-14.32,5.81-6.84,2.83-9.11-.1-25.55-.78-9.41-.38-15.5-.64-23.22,1.17a60,60,0,0,0-22.84,10.83c-2.57,2-7,7.18-15.87,17.42-11,12.79-12.39,14.74-16.65,16.65-.87.39-9.91,4.29-19.74,1.16A15.05,15.05,0,0,1,7.07,372.63Z" transform="translate(0.32 1.09)" style="fill:none;stroke:#ff8b00;stroke-miterlimit:10;stroke-width:8px"/></svg>