<?xml version="1.0" encoding="utf-8"?>
<!-- Generator: Adobe Illustrator 24.2.3, SVG Export Plug-In . SVG Version: 6.00 Build 0)  -->
<svg version="1.1" id="Layer_1" xmlns="http://www.w3.org/2000/svg" xmlns:xlink="http://www.w3.org/1999/xlink" x="0px" y="0px"
	 viewBox="0 0 656.4 383.2" style="enable-background:new 0 0 656.4 383.2;" xml:space="preserve">
<path style="fill:none;stroke:#FF8B00;stroke-width:9;stroke-miterlimit:10;" d="M7.4,373.7c-4.5-5-3.3-11.9-3.1-13.2
	c0.2-1,1.1-6.1,5.4-10.1c3.6-3.3,7.5-4,11.2-5c7.2-1.9,13.7-5.7,20.5-8.5c13.5-5.6,24.7-10.8,30.6-13.5c10.5-4.9,13-6.4,19.7-8.9
	c4-1.5,4.7-1.6,15.5-5.4c3.9-1.4,5.5-2,8.1-2.7c2.7-0.7,6.9-1.7,12.8-2.3c11.5-1.2,12.1,1,20.1,0c11.7-1.5,12.7-6.5,19.4-5
	c4,0.9,3.9,2.7,15.5,11.2c6.3,4.6,9.5,6.9,12.4,7.4c2.1,0.3,2.6-0.1,17-4.3c5.4-1.6,8.2-2.3,12-4.3c3.8-1.9,5.9-3,7.7-5.4
	c2.2-2.9,1.4-4.4,3.5-11.2c1.4-4.6,2.3-7.5,4.6-10.5c2.7-3.5,5.9-5.3,9.7-7.4c2.7-1.5,6.2-3.4,11.2-4.3c2-0.3,3.9-0.4,12.4,0.4
	c13,1.3,12.3,1.9,15.1,1.5c8.4-1.1,14-6.6,15.9-8.5c1.7-1.8,5.3-5.7,6.6-11.6c1.7-7.7-2.1-10.8,0.4-15.1c2-3.4,5.3-2.9,13.2-6.2
	c5.6-2.3,5-3.1,16.6-10.1c12-7.2,11-5.5,19.4-10.8c6.7-4.3,9.8-7,17.4-10.8c4.8-2.4,7.6-3.3,10.5-3.9c3.3-0.6,4.1-0.2,12-0.4
	c9.3-0.2,11.7-0.8,13.5-1.5c2.3-0.9,6.8-2.6,7.4-5.8c0.2-0.9-0.1-1.9-3.5-7.4c-3.4-5.4-3.7-5.4-3.9-6.2
	c-1.3-5.7,12.9-13.1,20.5-17.8c11.2-6.8,6-6.1,33.7-29.4c18.5-15.6,18.7-14.1,39.1-31c23-19,21.1-19.5,34.8-29.8
	c25.2-18.9,25.8-12.9,46.1-29c11.3-9,24.9-21.9,44.9-30.2c4.4-1.8,11.7-4.5,16-1.2c1.1,0.9,3.6,3.5,3,13.2
	c-0.7,11.6-5,19.7-7.7,25.5c-8.5,18.1-3.6,18.3-11.2,34.8c-7.3,15.9-16.7,26.4-23.2,33.7c-9.8,10.9-18.4,17.5-26.7,24
	c-14.7,11.4-22.1,17.1-32.9,20.9c-15.5,5.5-29.6,4.8-37.9,4.3c-18.5-1.1-21.8-5.8-37.2-3.9c-3.2,0.4-13.4,1.9-24.4,8.1
	c-6.6,3.7-11.3,6.4-14.3,12c-3.2,5.9-1.3,9.3-5,15.5c-3.4,5.6-8.3,8.5-10.5,9.7c-9.3,4.9-14.3-0.1-27.5,2.3
	c-5.6,1-10.7,3.7-20.9,8.9c-10.3,5.3-16.1,8.3-22.5,13.9c-6.4,5.7-5.7,7.3-18.6,23.2c-7.5,9.3-11.3,13.9-15.1,17
	c-7.4,6-14.2,8.7-27.5,13.9c-16,6.3-16.6,4.5-24,8.9c-4.9,2.9-10.4,8.3-21.3,19c-13.4,13.2-12.4,13.3-17.4,17
	c-9.5,7.1-18.2,10.3-25.9,13.2c-8.5,3.2-12.1,3.5-14.7,3.5c-3.9,0-11.6,0-16.6-5c-4-4-2.7-7.5-7.4-10.8c-3.6-2.6-7.6-2.7-8.9-2.7
	c-6.3-0.1-8.8,3.5-14.3,5.8c-6.8,2.8-9.1-0.1-25.5-0.8c-9.4-0.4-15.5-0.6-23.2,1.2c-12.2,2.9-20.4,9-22.8,10.8
	c-2.6,2-7,7.2-15.9,17.4c-11,12.8-12.4,14.7-16.6,16.6c-0.9,0.4-9.9,4.3-19.7,1.2C12.5,377.3,9.7,376.3,7.4,373.7z"/>
</svg>
