<svg version="1.2" xmlns="http://www.w3.org/2000/svg" viewBox="0 0 573 409" width="573" height="409">
	<title>image</title>
	<style>
		.s0 { fill: none;stroke: #ff8b00;stroke-miterlimit:100;stroke-width: 8 } 
	</style>
	<path class="s0" d="m41 56c6.9-2.2 22.1-8.7 31.9-7.7 9.8 1.1 16.6 11 17.5 13.4 1.3 3.6 28.8 87.2 35.2 94.6 2.9 3.3 7.6 4.2 9.8 4.2 3 0 8.4-2 11.1-5.4 5.5-6.9 13.9-122.4 17.1-130.7 4.3-10.9 10.6-18 22.1-18.8 11.5-0.8 22.1 3.5 25.3 11.4 4.8 11.8 7.3 36.2 10.5 41.8 3 5.4 22.4 29.7 26.8 34 4.3 4.3 16.4 10.4 21 21.3 3.1 7.4-6.5 41.7-6.5 41.7 0 0-6.6 21.4-8.9 35.8-1.2 7.5 0.8 15.5 8.1 18.4 14.5 5.7 35.5-1 44-4 8.5-3 23.9-13.6 34-21.6 21.6-17.2 36.3-45 41-55.2 6.1-13.4 26.4-72.2 33-84.2 6.6-12 16.6-19.9 25-20 8.4-0.1 50.3-0.4 58 0 7.7 0.4 13.8 7.2 18 12 4.2 4.8 31.1 55.2 33.5 65.3 3.7 16-80.5 97.3-80.5 113.7 0 17.1 92 141.6 93.7 149 2.9 13 0.8 28-14.6 35.3-7.2 3.5-194.9 1.9-217 2-14.3 0-226.7 0.8-249 0-15.5-0.5-24.5-14.1-26-21.4-1.9-9.4-3.3-23.6 18.1-33.1 21-9.3 38.6-20.8 56.8-29.8 7.5-3.7 12.8-10.9 12.8-23.3-0.1-13.9-9.5-21.8-28.2-30.4-13.2-6-46.5-21.7-49.4-27.1-9.7-17.9-49.6-131.5-52.2-142.2-1.4-6.1-4.6-18.7 0.9-24.4 5.6-5.7 20.2-12.4 27.1-14.6z"/>
</svg>