<svg id="Layer_1" data-name="Layer 1" xmlns="http://www.w3.org/2000/svg" width="595.29" height="379.05" viewBox="0 0 595.29 379.05"><path d="M281.46,113.15c26.83,14.76,64.22,38.34,78.22,42.91,16.08,5.25,128.44,9.13,97,7.7-29.93-1.36,60.24,4.19,69,3.91,4-.13,16.57-.47,24.54-6.78,5.56-4.41.86-32.85-.35-42.15-5-38.56-20-42.78-22.65-66.36-.77-6.7,1.65-25.9,2.3-32,.66-6.27,3.55-14.23,8.76-14.23,11,0,11.94,10.78,15.91,14,2.43,2,9.35,8.68,20.56,8.46,5.81-.12,10.85-1.49,14-.19s3.87,15.84,4.41,19.36c1.15,7.48,25.51,187.49,26.07,194,1,11.12-3.35,16.34-7.66,22.24-8.24,11.26-11.19,16.91-15,19.17s-71.34-3.05-98.73-4.37c-3.72-.18-13.22.15-18.79-4.21-4.32-3.39-6-6.19-6.73-17.31-.17-2.4.22-9.77-3.1-11.54-2.19-1.16-15.52-1.86-28.69-2.63-11.47-.68-23-1.91-26.07.19-4.22,2.87-4,30.58-10,34.12-5.18,3.07-41.41,0-73.23-2.3-8.07-.58-16.16-4.71-17.25-11.12-1.06-6.15.66-19.12-.39-22.24a11.2,11.2,0,0,0-9.39-7.47c-9.57-.42-19.31-.46-27.41-1.73-9.74-1.53-58.39-44.65-63.27-48.31-9.2-6.9-19.2-17.53-22.83-16-4.58,2-13.59,32.07-24.71,60.63-3.76,9.67-10.35,36.16-16.87,77.64-3.73,23.76-8.71,47.95-8.82,49.07-.52,5.69-1.78,20.34-7.28,21.47-4.76,1-7.79-9.33-19.17-21.85C98.57,338.4,80.55,331.5,76.34,321.91c-6.27-14.24-.77-27.6-4.6-31.05-2.19-2-7.71-.87-14.57-4.6a75.44,75.44,0,0,1-16.68-12.85,30.08,30.08,0,0,1-8.39-21.27c.14-3.42,7.43-8.44,13.76-20.52,4.68-8.93,9.74-16.34,12.84-24,2.11-5.18,24.36-44.38,28-51.76,2.5-5.09,19-34.12,23-38.34,6.08-6.36,12.08-11.69,16.53-11.89,2.84-.13,15.6,8.66,30.44,23.39,10.08,10,21.86,27.44,25.3,27.23,6.14-.39,16.35-24.58,21.08-31.84,6-9.22,23.3-37.47,29.72-39.48C237.46,83.5,257.39,99.92,281.46,113.15Z" transform="translate(-28.08 -2.14)" style="fill:none;stroke:#ff8b00;stroke-miterlimit:10;stroke-width:8px"/></svg>