<svg id="Layer_1" data-name="Layer 1" xmlns="http://www.w3.org/2000/svg" viewBox="0 0 651 323.56"><path id="melbourn" d="M114.43,34.36a63.17,63.17,0,0,1,32.16,1C152.06,37,158.43,39.89,170,46.91c14.95,9.08,22.87,14.86,32.89,24,6,5.5,11.09,9,15.1,16.08,5.63,9.89,7.88,12.82,17.06,33.25,5.1,11.36,7.57,19.22,10.71,25.21,5.87,11.18,11.45,17.73,15.47,23a89.81,89.81,0,0,0,18,18.27,114.28,114.28,0,0,0,20.83,12.91c10.36,5,18.23,7.91,22.65,8.89a86.74,86.74,0,0,0,18.52,1.71c15-.08,16.43-.93,33-1.83,18.29-1,20.74-1.29,31.91-2.92,4.43-.64,8.5-6,11.7-10.48,9.5-13.15,9.38-16.14,16.93-21.31,4.63-3.17,9-2,35.68-4.26,14.43-1.23,15.4-1.93,38.49-3.54,13.49-.93,17.66-.72,23.39.25,8.54,1.43,14.62,4.11,24.72,9,21.67,10.52,28,14.09,41.9,21,11,5.43,21.46,12.22,32.4,17.78,11.44,5.81,17.66,9.53,18,14.85.22,3.42-2.9,6.61-11.92,21.69-4.54,7.6-8,14.26-14.61,27.29-7.85,15.33-8.77,18.62-13.29,21.37-11.32,6.88-17.61,4.15-23.37,2.8-6.46-1.52-12.31-3.1-26.92-7.12a72.7,72.7,0,0,0-25.09-5.6c-1.25,0-4-1-5.48.73-1.37,1.56-1.76,5.25-1.59,7.06.39,4.22,1.47,9.65,1.59,13.89.24,9.13.92,13.39-.27,18.69-.57,2.52-1.62,3.93-4.36,7-5.18,5.79-15.07,5.89-18.27,6-28.14.61-54.33,2.2-83.19,2.44-18,.15-87.57,1.08-124.48,2.56,0,0-8.53-.12-41.66.73-1.25,0-3.8.38-5.6-1.58s-1.39-3.78-1.71-5.73c-1-6.09-6.21-12.06-10.71-16.93-5.9-6.37-15.13-9.88-19.13-10.35-7.3-.86-17.87.58-31.06,1.34-8.27.47-5.49,1-19.73.73-9.73-.21-28.65-1.12-35.56-1.59-18.74-1.27-34.22-3.18-45.82-5.71-21.12-4.62-17.4-3.91-29-6.59-.6-.14-5.44-1.52-15.1-4.38-3.48-1-5.23-2.25-6.46-4.39-.75-1.31-2.07-3.32.37-9,2.1-4.91,8.56-11,13.88-18.76,3-4.38,8.65-12.66,5.21-16.92-6.49-8-14.34-12.67-35.66-32.28-8.4-7.74-10-9.52-12.54-13.77-2.89-4.78-.84-9.63.08-19,2-20.27,1.26-15.28,3.45-29.87a133.33,133.33,0,0,1,9.5-29c9.26-20.58,9-19.23,12.43-29.47,2.22-6.57,3.41-12.55,4.75-22.9.21-1.62,2-5.16,3.67-5.51,5.06-1,9.69.29,16.18-.7,5.95-.91,9.46-2.13,17.54-8.16C85,50.62,85.32,50,92.75,44.1,96.25,41.31,104,36.82,114.43,34.36Z" transform="translate(-2.37 -28.73)" style="fill:none;stroke:#ff8b00;stroke-miterlimit:10;stroke-width:8px"/></svg>