<?xml version="1.0" encoding="utf-8"?>
<!-- Generator: Adobe Illustrator 24.2.3, SVG Export Plug-In . SVG Version: 6.00 Build 0)  -->
<svg version="1.1" id="Layer_1" xmlns="http://www.w3.org/2000/svg" xmlns:xlink="http://www.w3.org/1999/xlink" x="0px" y="0px"
	 viewBox="0 0 656.4 383.2" style="enable-background:new 0 0 656.4 383.2;" xml:space="preserve">
<path style="fill:none;stroke:#FF8B00;stroke-width:10;stroke-miterlimit:10;" d="M114.8,35.5c14.4-3.4,26.5-0.7,32.2,1
	c5.5,1.6,11.8,4.6,23.4,11.6c14.9,9.1,22.9,14.9,32.9,24c6,5.5,11.1,9,15.1,16.1c5.6,9.9,7.9,12.8,17.1,33.3
	c5.1,11.4,7.6,19.2,10.7,25.2c5.9,11.2,11.4,17.7,15.5,23c7.6,10,13.4,14.6,18,18.3c9.7,7.6,18.5,11.8,20.8,12.9
	c10.4,5,18.2,7.9,22.7,8.9c1.8,0.4,8.7,1.8,18.5,1.7c15-0.1,16.4-0.9,33-1.8c18.3-1,20.7-1.3,31.9-2.9c4.4-0.6,8.5-6,11.7-10.5
	c9.5-13.2,9.4-16.1,16.9-21.3c4.6-3.2,9-2,35.7-4.3c14.4-1.2,15.4-1.9,38.5-3.5c13.5-0.9,17.7-0.7,23.4,0.2c8.5,1.4,14.6,4.1,24.7,9
	c21.7,10.5,28,14.1,41.9,20.9c11,5.4,21.5,12.2,32.4,17.8c11.4,5.8,17.7,9.5,18,14.8c0.2,3.4-2.9,6.6-11.9,21.7
	c-4.5,7.6-8,14.3-14.6,27.3c-7.8,15.3-8.8,18.6-13.3,21.4c-11.3,6.9-17.6,4.2-23.4,2.8c-6.5-1.5-12.3-3.1-26.9-7.1
	c0,0-11.7-5.3-25.1-5.6c-1.2,0-4-1-5.5,0.7c-1.4,1.6-1.8,5.3-1.6,7.1c0.4,4.2,1.5,9.7,1.6,13.9c0.2,9.1,0.9,13.4-0.3,18.7
	c-0.6,2.5-1.6,3.9-4.4,7c-5.2,5.8-15.1,5.9-18.3,6c-28.1,0.6-54.3,2.2-83.2,2.4c-18,0.2-87.6,1.1-124.5,2.6c0,0-8.5-0.1-41.7,0.7
	c-1.2,0-3.8,0.4-5.6-1.6c-1.8-2-1.4-3.8-1.7-5.7c-1-6.1-6.2-12.1-10.7-16.9c-5.9-6.4-15.1-9.9-19.1-10.4c-7.3-0.9-17.9,0.6-31.1,1.3
	c-8.3,0.5-5.5,1-19.7,0.7c-9.7-0.2-28.7-1.1-35.6-1.6c-18.7-1.3-34.2-3.2-45.8-5.7c-21.1-4.6-17.4-3.9-29-6.6
	c-0.6-0.1-5.4-1.5-15.1-4.4c-3.5-1-5.2-2.2-6.5-4.4c-0.8-1.3-2.1-3.3,0.4-9c2.1-4.9,8.6-11,13.9-18.8c3-4.4,8.6-12.7,5.2-16.9
	c-6.5-8-14.3-12.7-35.7-32.3c-8.4-7.7-10-9.5-12.5-13.8c-2.9-4.8-0.8-9.6,0.1-19c2-20.3,1.3-15.3,3.4-29.9c0.4-2.7,3.1-14.8,9.5-29
	c9.3-20.6,9-19.2,12.4-29.5c2.2-6.6,3.4-12.5,4.8-22.9c0.2-1.6,2-5.2,3.7-5.5c5.1-1,9.7,0.3,16.2-0.7c6-0.9,9.5-2.1,17.5-8.2
	c9.5-7.1,9.9-7.7,17.3-13.6C96.6,42.4,104.3,37.9,114.8,35.5z"/>
</svg>
