<svg id="Layer_1" data-name="Layer 1" xmlns="http://www.w3.org/2000/svg" width="656.37" height="383.19" viewBox="0 0 656.37 383.19"><defs><style>.cls-1{fill:none;stroke:#ff8b00;stroke-miterlimit:10;stroke-width:8px;}</style></defs><path id="mexico" class="cls-1" d="M111.68,33.43c5.81-.15,40,.27,49,.35,23.14.22,29.26.42,49.86.67,41.44.5,68.31.24,80.78.33,13.08.09,38.57-1.5,64.82-2.33,21.77-.69,48.69-.57,60.33-.58,16.62,0,108.37.73,118.17.58,7.48-.11,13,.75,21.28,1.66,5,.56,8.07,1.33,8.86,2.31,2.83,3.51.28,24.67,2.22,29.88.78,2.11,13,5.09,16,7.65,4.1,3.6-1,34.88-3.43,42.93-6.32,21-38.73,94.42-40.72,98.9-5.19,11.7-30.1,68.58-35.9,79-2.44,4.37-4.71,8.28-3.66,11.3C501,311,522,315,521.49,320.15c-.34,3.66-10.19,11.87-14.66,16-1.86,1.72-6,5.17-9.83,8.74-4.1,3.8-6.87,7.48-10.31,7.48-8.47,0-8.81-8.21-8.86-11.47-.05-3.94-.12-98.9-.28-101.05-.33-4.66-4.28-8.85-6.59-9.7a157.05,157.05,0,0,1-15.35-6.92,52.46,52.46,0,0,1-12.18-9c-6-6.42-8.82-14.66-15.13-19.22-4.6-3.32-9.92-5.29-16.62-6.32-3.24-.49-24.32-.42-30.47-.49-9.11-.12-17.89.53-22.44-1.33-3.65-1.5-5.86-4.66-7.81-10.14-1.33-3.75-4.64-12.09-6.81-15.46-2.33-3.6-6.25-5.35-13.08-8-21.21-8.33-39.28-15.4-43-16a141.35,141.35,0,0,0-18.34-2.72c-11.22-.66-102.7-.77-119.33-1-6.15-.08-8.06-3.9-9.39-9-3.76-14.32-9.52-43.45-10.36-46.11s-1.86-6.29-6.68-6.16c-6.15.16-7.38,9.34-9.78,11.9-3.27,3.47-4.35,3.22-10.08,2.06A78.55,78.55,0,0,0,87.25,84c-6.23,0-11,0-15.58.24-3.12.17-5.45-3.73-5.45-7.47,0-4.91,3.61-16.42,5.16-19.2,4.9-8.81,9-13.12,14.21-16.87C97.8,31.87,104.94,33.62,111.68,33.43Z"/></svg>