<svg id="Layer_1" data-name="Layer 1" xmlns="http://www.w3.org/2000/svg" viewBox="0 0 647.11 403.24"><defs><style>.cls-1{fill:none;stroke:#ff8b00;stroke-miterlimit:10;stroke-width:8px;}</style></defs><path class="cls-1" d="M64.73,8.89c7.17-.19,49.3.33,60.47.43,28.53.27,36.07.52,61.48.82,51.1.62,84.23.31,99.61.41,16.12.11,47.55-1.84,79.92-2.87,26.85-.84,60.05-.7,74.4-.71,20.49,0,133.63.89,145.72.71,9.22-.13,16,.93,26.23,2.05,6.22.69,10,1.64,10.93,2.85,3.48,4.33.34,30.42,2.73,36.85,1,2.59,16.08,6.27,19.68,9.42,5.05,4.44-1.24,43-4.24,53-7.79,25.82-47.75,116.43-50.21,122-6.4,14.42-37.12,84.56-44.26,97.34-3,5.4-5.81,10.22-4.52,13.94,2.12,6.08,28,11.11,27.4,17.42-.41,4.51-12.56,14.64-18.08,19.75-2.29,2.14-7.37,6.38-12.12,10.78-5.06,4.69-8.47,9.23-12.7,9.23-10.46,0-10.88-10.12-10.93-14.14-.07-4.86-.16-121.95-.35-124.61-.41-5.74-5.28-10.91-8.13-12A190.88,190.88,0,0,1,488.84,243a64.59,64.59,0,0,1-15-11.13c-7.44-7.93-10.87-18.09-18.65-23.71-5.67-4.1-12.23-6.52-20.49-7.79-4-.61-30-.52-37.58-.61-11.23-.14-22.06.65-27.66-1.64-4.51-1.84-7.23-5.74-9.64-12.5-1.64-4.62-5.71-14.91-8.4-19.06-2.87-4.44-7.7-6.6-16.12-9.91-26.16-10.27-48.44-19-53-19.74-3.46-.57-12.33-2.74-22.61-3.35-13.83-.82-126.64-1-147.15-1.23-7.58-.1-9.94-4.81-11.58-11.07-4.63-17.65-11.74-53.57-12.76-56.85s-2.3-7.76-8.25-7.6c-7.58.2-9.1,11.52-12.06,14.67-4,4.29-5.36,4-12.43,2.54-2.95-.6-11.27-2.73-20.8-2.76-7.68,0-13.53,0-19.21.29-3.85.22-6.71-4.6-6.71-9.21,0-6,4.44-20.24,6.35-23.67,6-10.86,11.11-16.18,17.52-20.8C47.63,7,56.42,9.12,64.73,8.89Z" transform="translate(-4.69 -2.97)"/></svg>