<?xml version="1.0" encoding="utf-8"?>
<!-- Generator: Adobe Illustrator 24.2.3, SVG Export Plug-In . SVG Version: 6.00 Build 0)  -->
<svg version="1.1" id="Layer_1" xmlns="http://www.w3.org/2000/svg" xmlns:xlink="http://www.w3.org/1999/xlink" x="0px" y="0px"
	 viewBox="0 0 656.4 383.2" style="enable-background:new 0 0 656.4 383.2;" xml:space="preserve">
<path style="fill:none;stroke:#FF8B00;stroke-width:8;stroke-miterlimit:10;" d="M89.5,70.9c37.1,0.9,128.6,5.3,128.6,5.3
	c4.9-0.1,36.5,1.5,98.1,3.6c62.3,2.1,222.6,8.8,229,9.1c6.4,0.3,89.7,3.6,92.9,3.6c1.8,0,9.4,0.5,10.3,3.3c0.6,2,0.7,4.4-0.2,7.9
	c-1.7,6.4-1.9,8.2-4.7,18.3c-2.1,7.5-1.7,8.9-0.7,10.6c2,3.2,7.5,3.9,7.7,7.3c0.1,2.8-1,4.3-5.5,10.9c-2.8,4.2-4.2,7.3-8,10.5
	c-1.4,1.2-3.6,3.4-7.2,4.3c-4.5,1.1-6.7,0.7-21,0.7c-9-0.1-11.1,0.4-13.8,1.7c-4.1,2.1-6.1,5.3-7.2,7.5c-0.9,1.6-3.9,9.3-1.7,17.2
	c1.1,4,4.3,5.9,7,8.2c2.2,1.9,5,3.7,10.9,6.9c5.4,2.9,7.1,4.6,9.2,7.3c1.1,1.4,2.8,3,2.6,5.6c-0.3,3.2-4.9,5.6-8,7.4
	c-7.2,4-13.7,8.1-20.9,11.6c-14.9,7.2-12.7,7.1-41.4,19.5c-27.2,11.8-28.1,12.2-82.4,31.4c-25.6,9-44.9,15.4-51.9,16.8
	c-12.8,2.4-28.3,4.5-36.4,4.7c-11.7,0.3-21.6,0.9-35.4-0.2c-4.2-0.3-12-1.5-21.6-4c-10-2.5-17.3-4.6-30.7-10.7
	c-16.4-7.4-18.5-8.7-28.2-11.6c0,0-10.5-3.4-22.2-3.6c-22.3-0.3-35.7,0.8-63.9,1.2c-21.6,0.3-44.1,1.8-67.7-0.7
	c-18.4-1.9-26.1-5.7-33.7-7.6c-2-0.5-7.3-2.7-14.3-3.3c-5.6-0.5-9.6-0.4-13.7-0.2c-10.6,0.5-11.6,1.1-18.9,1.4
	c-6.4,0.2-10.1-2.6-11.1-3.2c-2-1.3-5.3-3.4-7-7.5c-1.7-4.4-0.8-11.8-0.7-13c0.3-2.9,1-8.9,5.7-14.7c4.2-5.3,8.6-7.9,13.9-11.2
	c3.7-2.3,8.6-5.4,15.8-7.2c6.6-1.7,11.9-1.5,14.9-1.4c5.3,0.2,10.3,0.4,15.8,3c3.1,1.5,6,4.1,11.6,9.3c7.6,7,8,8.6,12.8,11.6
	c2.7,1.7,6.1,3.9,11.2,4.9c5.1,1,9.2,0.3,11.9-0.2c5.9-1.1,10-3.3,14.4-5.8c7.3-4.1,6.9-5.3,14.2-9.3c4-2.2,7.8-4.2,13.3-5.4
	c5.9-1.2,10.5-0.9,12.1-0.7c5.9,0.6,10.3,2.4,13.7,4.2c12.5,6.6,22.1,12.6,22.1,12.6c0.9,0.6,11.7,7.1,33.5,20
	c15.7,9.4,23.8,14,34.2,19.1c9.6,4.7,16,6.9,24.2,8.6c8.1,1.7,15.3,1.9,18.7,2c3.9,0.1,9.8,0.1,17.5-1.2c5-0.8,15-2.5,26.3-9
	c5-2.9,10.9-5.9,15.7-12.3c1.7-2.3,4-5.7,5-11c0.9-4.4,1-5.6,0.8-16.2c-0.2-8.7,0-12.5,1.4-14.9c1-1.8,3.3-5.1,10.4-10.4
	c7-5.2,11.2-6,13.4-9.4c1.1-1.7,2.9-4.6,2.7-8.1c-0.2-3.7-2.1-7-4.4-8.6c-12.6-8.7-21.9-13.4-23.1-14.1c-6.5-3.8-69.3-40.6-73-42.9
	c-8.7-5.5-57-33.2-63.7-36.8c-5.3-2.8-14-6-25.8-7c-6.2-0.5-11.6-0.1-16.1,0.2c-6.6,0.5-13.4,1-21.6,3.5c-7.4,2.2-13.3,4.9-19.8,8.3
	c-8.6,4.5-9.5,6.4-15.6,8.4c-1.3,0.4-9.6,3-17.8,2.9c-5.2,0-8.9,0.4-14.5-1.9c-4.1-1.7-13.8-8.6-17-10.7
	c-3.5-2.3-13.9-9.2-15.7-11.3c-1-1.2-4.1-4.3-3.4-8.1C82.5,72.8,87.3,70.8,89.5,70.9z"/>
</svg>
