<svg id="Layer_1" data-name="Layer 1" xmlns="http://www.w3.org/2000/svg" viewBox="0 0 652.95 249.39"><path id="miami" d="M89.13,69.81c37.12.87,128.63,5.26,128.63,5.26,4.89-.09,36.52,1.55,98.14,3.59,62.33,2.07,222.61,8.82,229,9.1s89.67,3.55,92.94,3.57c1.83,0,9.45.52,10.34,3.32a13.84,13.84,0,0,1-.18,7.85c-1.66,6.36-1.89,8.22-4.66,18.25-2.06,7.48-1.68,8.94-.66,10.58,2,3.23,7.54,3.93,7.68,7.31.11,2.8-1,4.27-5.46,10.92-2.83,4.18-4.19,7.25-8,10.51a16.87,16.87,0,0,1-7.19,4.32c-4.51,1.13-6.7.74-21,.65-9-.06-11.08.36-13.78,1.74a16.85,16.85,0,0,0-7.22,7.47c-.87,1.62-3.9,9.29-1.68,17.18,1.11,4,4.26,5.92,7,8.24,2.24,1.88,5,3.67,10.94,6.91,5.38,2.93,7.07,4.56,9.17,7.26,1.12,1.45,2.81,3,2.57,5.59-.3,3.22-4.89,5.64-8,7.39-7.15,4-13.65,8.1-20.93,11.63-14.93,7.24-12.71,7.09-41.36,19.49-27.21,11.77-28.1,12.24-82.43,31.36-25.55,9-44.85,15.44-51.94,16.79-12.8,2.44-28.3,4.51-36.41,4.7-11.7.27-21.6.88-35.36-.23a145.38,145.38,0,0,1-21.63-4A155.7,155.7,0,0,1,287,295.9c-16.43-7.43-18.49-8.73-28.16-11.58a83.78,83.78,0,0,0-22.2-3.57c-22.28-.26-35.66.77-63.85,1.2-21.63.32-44.13,1.79-67.69-.7-18.36-1.94-26.08-5.74-33.67-7.61-2-.5-7.32-2.72-14.25-3.32a95.42,95.42,0,0,0-13.72-.24c-10.6.51-11.58,1.1-18.87,1.38a17.63,17.63,0,0,1-11.14-3.24c-2-1.27-5.31-3.4-7-7.53-1.74-4.38-.85-11.84-.74-13A27,27,0,0,1,11.39,233c4.16-5.3,8.6-7.9,13.89-11.25a51.9,51.9,0,0,1,15.82-7.21A50.38,50.38,0,0,1,56,213.09c5.28.21,10.31.4,15.81,3,3.12,1.48,6,4.09,11.63,9.3,7.63,7,8,8.56,12.8,11.63a30.3,30.3,0,0,0,11.16,4.89,30,30,0,0,0,11.87-.23c5.9-1.12,10-3.35,14.42-5.82,7.28-4.06,6.88-5.34,14.19-9.3a45.82,45.82,0,0,1,13.26-5.35,39,39,0,0,1,12.09-.7,36.9,36.9,0,0,1,13.72,4.18c12.49,6.57,22.1,12.57,22.1,12.57.87.6,11.75,7.07,33.5,20,15.75,9.36,23.82,13.95,34.19,19.07,9.57,4.73,16,6.93,24.2,8.62a101.87,101.87,0,0,0,18.67,2,93.1,93.1,0,0,0,17.5-1.17,75.3,75.3,0,0,0,26.28-9c5-2.88,10.91-5.89,15.7-12.34a26.62,26.62,0,0,0,5-11c.87-4.41,1-5.58.8-16.23-.15-8.72,0-12.47,1.41-14.94,1-1.84,3.28-5,10.41-10.35s11.16-6.05,13.37-9.36c1.12-1.69,2.92-4.65,2.73-8.15a11.35,11.35,0,0,0-4.42-8.61,223,223,0,0,0-23.08-14.07c-6.51-3.78-69.3-40.59-73-42.92-8.66-5.47-57-33.21-63.73-36.75a67.66,67.66,0,0,0-25.82-7,98.56,98.56,0,0,0-16.05.23c-6.63.5-13.41,1-21.64,3.49a105.78,105.78,0,0,0-19.76,8.33c-8.57,4.5-9.54,6.4-15.59,8.42a63.52,63.52,0,0,1-17.79,2.94c-5.2,0-8.94.41-14.48-1.89-4.12-1.7-13.81-8.6-17-10.7-3.49-2.26-14-9.23-15.7-11.28-1-1.18-4.14-4.34-3.45-8.11A8.62,8.62,0,0,1,89.13,69.81Z" transform="translate(-1.4 -65.81)" style="fill:none;stroke:#ff8b00;stroke-miterlimit:10;stroke-width:8px"/></svg>