<?xml version="1.0" encoding="utf-8"?>
<!-- Generator: Adobe Illustrator 24.2.3, SVG Export Plug-In . SVG Version: 6.00 Build 0)  -->
<svg version="1.1" id="Layer_1" xmlns="http://www.w3.org/2000/svg" xmlns:xlink="http://www.w3.org/1999/xlink" x="0px" y="0px"
	 viewBox="0 0 656.4 383.2" style="enable-background:new 0 0 656.4 383.2;" xml:space="preserve">
<path style="fill:none;stroke:#FF8B00;stroke-width:8;stroke-miterlimit:10;" d="M540.8,124.8c6.5-0.9,15.7-3.1,41.9-5.5
	c3.4-0.3,13.9-1,16.7,0.1c4,1.5,5.4,6.2,5.7,10c0.4,4.6-2.1,7.8-2.8,8.9c-2.2,3.7-5,4.5-7.8,9.3c-1.6,2.8-3,4.7-3.5,9.1
	c-0.5,4.2-1,8-1.6,11.8c-0.5,3.3-2.8,6.5-3.9,9.5c-1.2,3.2-0.7,6.3,0.1,7.9c1.1,2.4,4.7,3.1,6.7,2.5c3-0.9,4.6-4.5,4.7-7.9
	c0.1-3.1,0.4-8.2,0.7-15c0.2-4,1.1-10.6,2.1-12.2c0.6-1,3.1-3.2,4.7-4.2c2.3-1.4,7.8-0.9,11,0.6c3.2,1.6,10.6,5.6,13.7,7.2
	c5.4,2.7,7.4,4.1,11.2,6.5c4.7,2.9,6.2,5.8,6.5,7.7c0.8,4.5-4.3,8.4-5.2,9.2c-1.4,1.4-6.5,5.7-8.9,7.6c-7.9,6.5-6.8,6.3-29.4,25.5
	c-10.8,9.1-19.1,15.5-31.5,22.5c-8.7,4.9-15.7,7.8-26.5,12.2c-15.5,6.3-24.5,9.1-29.8,10.2c-8.4,1.8-13.7,1.7-16,1.8
	c-7.9,0.3-13.9-1-18.6-2c-31.4-6.6-66.6-21.8-66.6-21.8c-18.8-5.8-48.8-23.3-60-31.4c-5.6-4-11.3-7.8-15.8-11.2
	c-10-7.5-14.3-12.9-17.6-12.4c-4.1,0.6-5.6,6.9-8.5,7.1c-2,0.1-9.5-4.9-11-8.1c-1.8-3.8-0.8-6.6-2.2-8.3
	c-3.8-4.3-19.2-16.4-25.8-21.1c-3.3-2.4-20.7-16.9-38.6-30.1c-12-8.9-28.9-22.6-31.9-25c-3.3-2.5-7-2.2-11.6-1
	c-6.4,1.7-23.1,7.6-29.3,11c-4.4,2.4-14.9,9.7-25.1,18.7c-1.1,0.9-10.6,12.3-11.6,15.7c-0.7,2.6-0.7,5-0.7,5
	c-0.1,3.9,0.9,6.7,1.2,9.5c0.1,1-0.3,7.8-4.2,13.2C109,185.1,93.5,205.1,86.6,216c-0.6,1-1.6,3.3-3.5,3.8c-3.2,0.8-4.2-0.5-7.6-1.9
	c-1.7-0.7-5.3-3.4-7.5-1.9c-3.7,2.6-5.9,8.7-7.5,12c-2.1,4.2-6.8,13.2-12.2,26.5c-1.8,4.5-4.4,19.2-3.8,28.2c0.8,11.3,4,16.9,4,16.9
	c1.7,3.5,3,8.2,2.7,11.3c-0.3,2.5-1.1,5-3.7,7.3c-1.2,1.1-5.4,1.6-8.2,0.3c-3.9-1.8-11.9-6.8-15.3-9.2c-7.1-5.2-8.5-7.2-12.7-10.4
	c-1.6-1.3-2.8-4.6-2.8-7.2c0-2.8,1.8-3.9,4.5-6.9c2.9-3.2,4.3-5,4.8-7.5c1-4.7,2.5-12.5,3.1-15.7c1-5.2,3.5-13.6,5.8-19.6
	c2.9-7.8,5.6-13.8,10.3-23.6c3.1-6.4,8.6-16.7,16.5-30.2c5.4-9.3,14.5-23,26.8-40.4c4.8-6.8,24.6-28.8,29.2-33.5
	c6.9-7.1,14.1-14.7,23.4-21.6c5-3.8,11.8-7.8,16.4-10.1c3.7-1.9,8.6-3.9,12-5.7c3-1.6,9.9-6.1,11.7-7.5c7.5-6.1,8-7.6,11-7.6
	c1.7,0,17.5,12.2,31.1,23c16.2,12.9,19.9,14.1,47.8,32.4c30.8,20.1,36,24.4,56.6,37.7c8.1,5.2,16.7,4.9,30.6,11.3
	c5.6,2.5,15.5,7.1,26.8,15.4c9.4,6.9,12.8,11.2,25.4,19.3c4.6,3,9.3,5.7,15.7,7.5c7.5,2.1,13.5,1.9,15,1.8c3.7-0.2,10.8-0.6,18.2-5
	c7.7-4.5,11.6-10.8,14-14.7c1.7-2.9,5.4-9,6.4-17.5c0.3-2.2,0.2-3.1,0.4-23.3c0-1.6,0.2-3.3,0.9-5.1c0.1-0.3,0.7-1.7,1.7-3.2
	c2.4-3.4,6.1-4.9,7.1-5.3C505.4,126.9,523,127.2,540.8,124.8z"/>
</svg>
