<svg id="Layer_1" data-name="Layer 1" xmlns="http://www.w3.org/2000/svg" viewBox="0 0 646.19 265.44"><path id="monaco" d="M540.79,124.76c6.46-.89,15.72-3.13,41.86-5.54,3.43-.32,13.88-1,16.73.08,4,1.53,5.39,6.19,5.73,10,.39,4.57-2.12,7.77-2.78,8.85-2.23,3.67-5,4.51-7.78,9.31-1.6,2.79-3,4.66-3.49,9.12-.49,4.21-1,8-1.61,11.81-.54,3.31-2.81,6.51-3.93,9.48a10.57,10.57,0,0,0,.08,7.88c1.1,2.4,4.73,3.1,6.71,2.5,3-.89,4.57-4.47,4.66-7.87.08-3.07.39-8.16.71-15,.19-4,1.08-10.56,2.06-12.17a19.47,19.47,0,0,1,4.74-4.2c2.33-1.43,7.81-.95,11,.62s10.61,5.62,13.69,7.16a104.25,104.25,0,0,1,11.18,6.53c4.67,2.91,6.18,5.76,6.53,7.69.81,4.48-4.34,8.38-5.18,9.22-1.45,1.43-6.51,5.66-8.86,7.59-7.88,6.45-6.76,6.32-29.43,25.51-10.79,9.13-19.15,15.54-31.49,22.54-8.72,4.95-15.66,7.77-26.48,12.17-15.53,6.31-24.48,9.06-29.79,10.2a76.87,76.87,0,0,1-16,1.79,73.24,73.24,0,0,1-18.6-2c-31.44-6.63-66.56-21.83-66.56-21.83-18.79-5.81-48.81-23.3-60-31.4-5.55-4-11.26-7.77-15.83-11.18-10-7.48-14.31-12.88-17.62-12.44-4.08.55-5.64,6.94-8.5,7.07-2,.09-9.49-4.88-11-8.14-1.79-3.85-.77-6.65-2.23-8.32-3.76-4.29-19.21-16.38-25.77-21.11-3.27-2.36-20.66-16.91-38.55-30.15-12.05-8.91-28.87-22.64-31.94-25-3.31-2.5-7-2.24-11.63-1-6.38,1.71-23.07,7.64-29.25,11-4.41,2.4-14.85,9.66-25.14,18.7-1.06.93-10.65,12.25-11.63,15.65a19.73,19.73,0,0,0-.72,5c-.12,4,.92,6.74,1.16,9.55a24.74,24.74,0,0,1-4.24,13.2C109,185.14,93.47,205.15,86.6,216c-.61,1-1.56,3.26-3.49,3.76-3.19.84-4.23-.49-7.6-1.88-1.73-.71-5.28-3.4-7.46-1.85-3.7,2.6-5.88,8.69-7.48,12-2.06,4.2-6.82,13.16-12.17,26.48C46.61,259,44,273.69,44.65,282.66c.8,11.27,4,16.91,4,16.91,1.69,3.51,3,8.23,2.69,11.27a10.85,10.85,0,0,1-3.68,7.31c-1.24,1.13-5.37,1.58-8.22.29a122.43,122.43,0,0,1-15.25-9.2c-7.15-5.19-8.55-7.19-12.66-10.39-1.61-1.25-2.78-4.56-2.78-7.16,0-2.77,1.79-3.86,4.52-6.85,2.93-3.22,4.25-4.95,4.79-7.46,1-4.72,2.52-12.51,3.13-15.65A142,142,0,0,1,27,242.13c2.94-7.78,5.6-13.79,10.29-23.61,3.07-6.43,8.63-16.71,16.46-30.24,5.39-9.31,14.45-23,26.84-40.44,4.83-6.79,24.63-28.78,29.16-33.45,6.91-7.12,14.11-14.65,23.44-21.65a119.82,119.82,0,0,1,16.37-10.11c3.73-1.86,8.61-3.9,12-5.7a117.87,117.87,0,0,0,11.67-7.54c7.49-6.1,8-7.6,11-7.6,1.7,0,17.51,12.15,31.13,23,16.2,12.88,19.9,14.14,47.77,32.38,30.77,20.13,36,24.43,56.63,37.66,8.1,5.2,16.71,4.91,30.6,11.27a147.26,147.26,0,0,1,26.83,15.39c9.42,6.87,12.85,11.21,25.41,19.32a54.9,54.9,0,0,0,15.75,7.52,47.67,47.67,0,0,0,15,1.79,38.63,38.63,0,0,0,18.24-5c7.72-4.52,11.59-10.75,14-14.67a44,44,0,0,0,6.44-17.54c.28-2.23.2-3.07.36-23.26a14.7,14.7,0,0,1,.91-5.14,15.2,15.2,0,0,1,1.68-3.18A16,16,0,0,1,482.1,136C505.36,126.91,523,127.23,540.79,124.76Z" transform="translate(-4.77 -57.79)" style="fill:none;stroke:#ff8b00;stroke-miterlimit:10;stroke-width:8px"/></svg>