<svg id="Layer_1" data-name="Layer 1" xmlns="http://www.w3.org/2000/svg" viewBox="0 0 651.2 235.13"><path id="montreal" d="M45.05,85.63c4.35.85,17.67.12,24.77.23,17.1.27,5.19.42,58.31,2.22,7.29.25,22.77,1.14,33.88,2.11,4.6.4,9.29,1,15,2,10.18,1.76,17.56,4,20.09,4.56,7.3,1.73,28,5.58,46.63,10,25.5,6.1,46.41,10.54,58.07,13.2,13.44,3.07,70.49,15.59,87.85,19.23,4,.84,11.55,1.9,12.5,4.18s-.19,6,1.07,9.43c.65,1.79,31.37,8,35.67,8.88,28.12,5.74,61.83,13.55,71.68,15.77,7.7,1.73,20.16,4,36,7.9,7.41,1.8,15.87,3.86,23.18,7.61,6.74,3.47,17.77,9.35,22.26,12.1s10.1,5.84,14.55,8.5c5.86,3.5,9.48,6.33,11.64,6.61,3.87.49,6.81-3.58,10.09-6.61,4.59-4.25,6.93-5.91,9.73-6.46,3.33-.66,7.22,2.28,8.41,4,1.75,2.54,2.19,7,2.19,8.15,0,3.32-1.85,6.4-4.21,9.73-7.33,10.36-12.27,15.07-12.27,15.07-9.28,8.87-15.07,15.34-23.48,19.63-5,2.57-29.88,15-32.69,16.48s-13.3,6.16-17.54,6.74c-1.9.26-5.2-1-7.79-2.8-1.47-1-4.11-4.23-6.13-5.69a9,9,0,0,0-6.05-2c-3.66.12-7.54,1-15.42,3.25-5.79,1.64-15.66,5.11-22,6.14-10.25,1.66-13.35,6.47-17.17,8.76a43.74,43.74,0,0,1-19,5.13c-8.1,0-13.19-.73-28.36-7.95-4.83-2.3-22.06-9.38-24.7-10.74-3.63-1.87-10.16-5.77-10.16-5.77a11.64,11.64,0,0,0-9.92-.1,9.28,9.28,0,0,0-5,7.25c-.82,9.18-3.53,11.6-6.92,15-1.49,1.49-10.08,5-15.43,5-8,0-14.34-1.92-20.33-3.59a247.09,247.09,0,0,1-29.62-10.25c-13.8-5.58-19.56-7.91-29.8-12-11.26-4.49-41.16-20.8-50.74-27.63-11.22-8-25.95-20.16-32.16-25.15-5.34-4.29-20.45-16-21.29-19.28-.77-3,2.8-5.75,3.56-12.07.15-1.21.2-5.1-.75-7.13-1.8-3.83-10.67-13.36-12.54-14.89-12.71-10.34-29.27-24.1-29.27-24.1-9.2-6.57-39.31-27.59-47.67-31.9C81.42,108.08,69.52,101.59,59.3,99c-18-4.64-36.42-8-46-10-4.61-1-6.59-3-6.9-5.78-.4-3.57,1.35-5.55,3.11-6.25,3.49-1.4,8.39-.33,13,1.4C22.5,78.27,34.35,83.54,45.05,85.63Z" transform="translate(-1.86 -71.72)" style="fill:none;stroke:#ff8b00;stroke-miterlimit:10;stroke-width:9px"/></svg>