<?xml version="1.0" encoding="utf-8"?>
<!-- Generator: Adobe Illustrator 24.2.3, SVG Export Plug-In . SVG Version: 6.00 Build 0)  -->
<svg version="1.1" id="Layer_1" xmlns="http://www.w3.org/2000/svg" xmlns:xlink="http://www.w3.org/1999/xlink" x="0px" y="0px"
	 viewBox="0 0 656.4 383.2" style="enable-background:new 0 0 656.4 383.2;" xml:space="preserve">
<path style="fill:none;stroke:#FF8B00;stroke-width:9;stroke-miterlimit:10;" d="M45,85.6c4.4,0.9,17.7,0.1,24.8,0.2
	c17.1,0.3,5.2,0.4,58.3,2.2c7.3,0.2,22.8,1.1,33.9,2.1c4.6,0.4,9.3,1,15,2c10.2,1.8,17.6,4,20.1,4.6c7.3,1.7,28,5.6,46.6,10
	c25.5,6.1,46.4,10.5,58.1,13.2c13.4,3.1,70.5,15.6,87.9,19.2c4,0.8,11.6,1.9,12.5,4.2c0.9,2.1-0.2,6,1.1,9.4
	c0.7,1.8,31.4,8,35.7,8.9c28.1,5.7,61.8,13.6,71.7,15.8c7.7,1.7,20.2,4,36,7.9c7.4,1.8,15.9,3.9,23.2,7.6
	c6.7,3.5,17.8,9.3,22.3,12.1c4.4,2.7,10.1,5.8,14.5,8.5c5.9,3.5,9.5,6.3,11.6,6.6c3.9,0.5,6.8-3.6,10.1-6.6c4.6-4.3,6.9-5.9,9.7-6.5
	c3.3-0.7,7.2,2.3,8.4,4c1.8,2.5,2.2,7.1,2.2,8.2c0,3.3-1.9,6.4-4.2,9.7c-7.3,10.4-12.3,15.1-12.3,15.1c-9.3,8.9-15.1,15.3-23.5,19.6
	c-5,2.6-29.9,15-32.7,16.5c-3,1.6-13.3,6.2-17.5,6.7c-1.9,0.3-5.2-1-7.8-2.8c-1.5-1-4.1-4.2-6.1-5.7c-2.6-1.9-4.5-2.1-6.1-2
	c-3.7,0.1-7.5,1-15.4,3.3c-5.8,1.6-15.7,5.1-22,6.1c-10.3,1.7-13.4,6.5-17.2,8.8c-4.4,2.6-12.9,5.1-19,5.1c-8.1,0-13.2-0.7-28.4-8
	c-4.8-2.3-22.1-9.4-24.7-10.7c-3.6-1.9-10.2-5.8-10.2-5.8c-2.9-1.6-7.6-1.4-9.9-0.1c-2,1.1-4.7,3.3-5,7.3c-0.8,9.2-3.5,11.6-6.9,15
	c-1.5,1.5-10.1,5-15.4,5c-8,0-14.3-1.9-20.3-3.6c-11.6-3.2-18.6-5.8-29.6-10.3c-13.8-5.6-19.6-7.9-29.8-12
	c-11.3-4.5-41.2-20.8-50.7-27.6c-11.2-8-26-20.2-32.2-25.2c-5.3-4.3-20.5-16-21.3-19.3c-0.8-3,2.8-5.8,3.6-12.1
	c0.1-1.2,0.2-5.1-0.7-7.1c-1.8-3.8-10.7-13.4-12.5-14.9c-12.7-10.3-29.3-24.1-29.3-24.1c-9.2-6.6-39.3-27.6-47.7-31.9
	c-12.2-6.3-24.1-12.8-34.4-15.4c-18-4.6-36.4-8-46-10c-4.6-1-6.6-3-6.9-5.8c-0.4-3.6,1.4-5.6,3.1-6.3c3.5-1.4,8.4-0.3,13,1.4
	C22.5,78.3,34.4,83.5,45,85.6z"/>
</svg>
