<svg id="Layer_1" data-name="Layer 1" xmlns="http://www.w3.org/2000/svg" viewBox="0 0 649.81 331.82"><path id="monza" d="M100.63,33.72c9,12.27,48.51,72.77,58.29,86,4.14,5.61,19.25,21.07,38.74,39.93,13.55,13.12,53.12,50.74,89.43,85.86,1.39,1.34,9.07,10.77,14,12.25,3.49,1,9.92-2.41,21-2.59,10.06-.15,16,5.63,17.91,7.27,2.71,2.31,9,10.73,14.67,10.58,9.52-.25,104.13,3,114.45,2.43,0,0,121,2.81,153.86,2.95,3.88,0,13.08.89,19.29,7.5,6.87,7.31,6.28,17.82,6.17,19.84-.56,10-6,16.8-9.11,20.64-9,11-20.58,15.8-28.15,17.95-28.68,8.18-56.55,7.84-61.11,7.91-58.73.87-271.13-1.38-289.75-1-1.06,0-10.24.78-12-1.25-2.1-2.44.45-8.49-2.5-10.9-2.42-2-12.56,3.15-16.48,4.67-5.54,2.15-11.16,4.68-31.5,7.79-16.75,2.56-40.74,2.28-58.7-2.14-37.92-13.27-49-34.63-52.13-38.73-17.42-23.19-24.23-90.38-24.79-94-.6-3.77-5-29-7.64-50-.63-5.05-1.39-10.12-3.76-12.2-2.85-2.51-6-.51-9.11-1.74-5.8-2.28-2-12.72-7.37-21.44-6.57-10.72-23.59-55.49-26-60.18-1.57-3-2.67-9.5-.27-16.08a21.27,21.27,0,0,1,8.85-11c11.12-7.24,47.84-7.77,60.37-11.65,1.4-.43,10.79-3.3,14.95-3.09A11.76,11.76,0,0,1,100.63,33.72Z" transform="translate(-2.76 -25.42)" style="fill:none;stroke:#ff8b00;stroke-miterlimit:10;stroke-width:8px"/></svg>