<svg id="Layer_1" data-name="Layer 1" xmlns="http://www.w3.org/2000/svg" viewBox="0 0 648.95 365.52"><path id="redbull" d="M18.87,120.76C36.42,109.9,42.19,107.59,50,103.54c6.4-3.31,34.38-14,41.45-17.08C105.61,80.22,155,70.69,172.11,67.2c58.92-12,81.68-19,98.77-24.82,10.5-3.57,23.48-8.51,36.11-13.32,17.77-6.77,31.61-11.43,37.93-14.22,2.28-1,14.11-6.41,20.45-.12A17.5,17.5,0,0,1,369.53,26c.17,11-6.09,28.4-7.79,32.21-1.58,3.56-12.44,26.21-30.67,39-10.43,7.33-18.85,10.55-35.62,15.65-13.5,4.1-27.42,6.28-62.18,15-5.55,1.4-13.56,3.52-20.76,10.23a38.54,38.54,0,0,0-9,43.64c4.17,9.29,18.25,18.66,29.68,27.57,20.94,16.32,27.81,19.92,41.41,30.13,4.06,3,12.58,4.42,18.17,4.51,6.88.11,17.26-4.4,23.58-11.06,4.52-4.76,7.22-9.25,9.63-17.75,3.11-11,6-17.81,6.51-21.86.79-6.77,17.12-27.76,29.3-36.52,7.39-5.32,38.18-18.21,91.18-42.73,33.12-15.33,46.79-20.65,58.37-26.18,15.52-7.41,31.32-14,46.95-21.36a38.3,38.3,0,0,1,17-3.65c7.19,0,15.68,2,21.17,7.86,10.79,11.45,16.74,19.67,46.64,55.07a16.78,16.78,0,0,1,4.18,9.51c.33,5.93-6,13.77-7.56,15.8a263.27,263.27,0,0,1-26,30C607,187.79,402.51,346.07,386.13,360.52c-2.38,2.1-9,8.77-13.54,8.72-4.16,0-5.9-4.48-10.53-8.42-4.89-4.17-10.32-7.07-20.16-12.64-14-7.91-32.14-18.9-61.39-37.31-7.32-4.61-30.26-17.64-50.55-34.91-18.86-16-48.45-42.71-62.59-56.12-43.63-41.37-90.88-57.32-106.22-62.44-9.6-3.2-26.34-9.47-48.75-19.26-1.81-.79-5.63-2.67-6-5.71C5.83,128.18,12.79,124.53,18.87,120.76Z" transform="translate(-2.35 -7.72)" style="fill:none;stroke:#ff8b00;stroke-miterlimit:10;stroke-width:8px"/></svg>