<?xml version="1.0" encoding="utf-8"?>
<!-- Generator: Adobe Illustrator 24.2.3, SVG Export Plug-In . SVG Version: 6.00 Build 0)  -->
<svg version="1.1" id="Layer_1" xmlns="http://www.w3.org/2000/svg" xmlns:xlink="http://www.w3.org/1999/xlink" x="0px" y="0px"
	 viewBox="0 0 656.4 383.2" style="enable-background:new 0 0 656.4 383.2;" xml:space="preserve">
<path style="fill:none;stroke:#FF8B00;stroke-width:8;stroke-miterlimit:10;" d="M131.7,33c6.1-2,10.6-1.8,16.9,3.8
	c4.5,4,9.7,10.7,17.5,19.5c21.4,24.2,26.8,30.2,44.5,44.1c5,4,9.5,5.2,13.8,7c11,4.6,20.2,7,23.4,15.9c2.2,6.1,0.9,13.4,0.4,20.3
	c-0.6,8.1-1.1,16.9-0.2,21.4c2.7,13.4,12.5,17.7,18.6,22.6c6.6,5.3,39.9,28.6,55.1,40.3c3.8,2.9,3.9,7,3.5,8.7
	c-0.8,3.1-3.4,5-7.3,5.9c-11.4,2.5-34.5-3.2-62.7-5.3c-25.4-1.9-45.4-7.1-74-7.1c-5.1,0-13.7,6.3-20.3,14
	c-6.4,7.4-11.2,14-10.8,17.4c0.3,2.9,11.4,3.2,25,4.7c9.2,1,18.7,2.4,26.5,2.6c18.8,0.5,72.1,1.3,123.3,1
	c47.8-0.3,93.1,0.3,106.1,0.1c3.7-0.1,11.2-0.4,14.5-4.3c2.1-2.5,4.6-8.2,4.9-13.7c0.3-5,0-8.7-0.4-12.5c-0.9-10-5.8-17.4-10.5-23.8
	c-5.2-7-10.5-12.7-19.2-17.1c-8.2-4.1-19.8-6.7-30.3-10.7c-8.5-3.3-16.1-7.9-20.1-12.2c-10.2-11.2-17.2-20-16.6-35.2
	c0.9-24.4,13.1-42.6,22.3-62.4c6.2-13.3,17.1-19.5,21.8-19.7c17.3-0.8,24,16,48,56c57.5,95.9,97.7,160.4,116.9,193.5
	c9.5,16.3,15.3,23.5,11.1,27.9c-4.2,4.3-13.6,7.5-17.5,9.8c-12.6,7.5-18.5,5.5-37.5,5.7c-27.8,0.3-63.5-0.6-87.6-0.6
	c-33.9,0-92-0.6-141.2-0.6c-59.5-0.1-116.6-0.3-155.4,0.2c-31.9,0.4-51,2.3-52.3-4.6c-1.2-6.9,14.2-13.2,22.5-30.4
	c4.8-10.1-5.2-22.7-9.1-32.9c-3.9-10.4-3.1-16.3-2.6-20.1c4.5-36,9.6-70.4,16.5-115.2C118.2,88.1,119.6,36.9,131.7,33z"/>
</svg>
