<svg id="Layer_1" data-name="Layer 1" xmlns="http://www.w3.org/2000/svg" viewBox="0 0 648.07 422.72"><path id="sakhir" d="M72.85-39.6c7.91-2.54,13.75-2.35,22,4.87,5.88,5.15,12.59,13.9,22.74,25.38,27.77,31.42,34.84,39.2,57.8,57.3,6.54,5.15,12.37,6.73,18,9,14.31,5.91,26.17,9.14,30.32,20.7,2.83,7.86,1.17,17.37.47,26.42-.83,10.57-1.43,22-.26,27.77,3.52,17.34,16.25,23,24.13,29.4,8.55,6.91,51.77,37.19,71.5,52.27A11.42,11.42,0,0,1,324,224.9c-1.09,4-4.38,6.51-9.53,7.63-14.84,3.23-44.81-4.11-81.38-6.91-32.93-2.52-58.92-9.17-96-9.17-6.66,0-17.74,8.24-26.39,18.22-8.34,9.63-14.53,18.17-14.07,22.56.38,3.71,14.82,4.12,32.42,6.09,12,1.34,24.23,3.12,34.43,3.39,24.41.65,93.61,1.63,160.08,1.26,62-.36,120.83.37,137.78.12,4.75-.07,14.54-.54,18.82-5.55,2.77-3.24,6-10.69,6.37-17.74a106.36,106.36,0,0,0-.5-16.25c-1.18-12.92-7.5-22.56-13.66-30.91-6.7-9.09-13.65-16.54-25-22.22-10.59-5.32-25.76-8.65-39.28-13.88-11-4.25-20.91-10.2-26.05-15.83-13.29-14.56-22.35-25.91-21.59-45.76,1.2-31.73,17-55.27,29-81.07,8-17.29,22.26-25.36,28.31-25.63C440.16-7.76,448.88,14,480,66,554.76,190.49,606.88,274.24,631.8,317.21c12.3,21.21,19.84,30.48,14.38,36.18s-17.7,9.74-22.73,12.71c-16.38,9.68-24.07,7.16-48.74,7.42-36,.4-82.4-.76-113.77-.8-44.06-.06-119.45-.76-183.29-.84-77.25-.1-151.4-.33-201.79.25-41.4.48-66.27,3-67.86-6s18.44-17.17,29.16-39.45c6.28-13.07-6.8-29.48-11.82-42.73-5.12-13.54-4-21.19-3.35-26.13,5.87-46.74,12.51-91.41,21.48-149.58C55.25,31.87,57.07-34.54,72.85-39.6Z" transform="translate(-3.92 45.08)" style="fill:none;stroke:#ff8b00;stroke-miterlimit:10;stroke-width:8px"/></svg>