<svg version="1.2" xmlns="http://www.w3.org/2000/svg" viewBox="0 0 579 377" width="579" height="377">
	<path class="s0" d="m288.3 11.4c12.7-1.6 31.2-3.4 41.8 14.8 8.4 14.3-5.3 33.2-14.9 32.6-11.1-0.6-11.6-18.1-23.8-18.6-11.3-0.4-13.8 8.9-13.5 14.1 0.3 5.2 5.9 16.4 13.1 21.7 7.2 5.3 15.4 8.7 25.3 6.8 9.9-1.9 45.6-7.2 51.7-7.8 6.1-0.6 45.6-7.9 56-8 10.4-0.1 46.5 10.2 51.5 11.1 7.8 1.3 45.1 8 45.5 16.6 0.4 9.2-13.1 13.5-17.2 14.8-4 1.2-22.7 5.2-38.4 4.5-15.8-0.6-61.1-3.8-72-3.6-11 0.2-28.9 5.8-39 20-10.1 14.2-13.4 29.4-6.3 48 7.1 18.5 28.7 39.3 25.3 55-2.4 11.3-5.7 20.8-13.7 26.5-9.6 6.2-18.9 6.2-33.3 5.1-9.9-0.7-23.4-6.6-29.5 0.9-6.1 7.5 0.3 22.5 2.1 26.1 2.3 4.6 5.6 16.8 11.3 17.9 5.6 1.1 62.1 2.1 71.5 2.4 9.4 0.3 58.6 1.4 66.7 1.7 10.4 0.3 47.7 2.7 51.2 0.1 4.7-3.7-7.5-25.3-2.6-30.8 4.9-5.5 13.9-8.7 23.5-7.1 9.5 1.5 27.7 9.3 29.9 27.9 1.7 15.1-7.9 28.9-13.1 35-2.5 3-15 13.3-28.4 14.1-8.9 0.4-57.5 0.4-66 0.4-7.4 0-68.4 0.4-77.7 0.3-8.9-0.1-84.3 0.1-84.3 0.1l-112 1-104 1-30.6-0.2c0 0-20 1.1-21.6-1.8-3.3-6.2 11.7-15.3 24.7-18.1 15.5-3.4 35.6-2.7 43.9-2.9 7.8-0.3 71.1-3 74.4-4.6 2.9-1.6 16.9-44.5 18.2-48.4 1.3-3.9 62-170 62-170l18.3-51.3c0 0 10.5-44.4 34-47.3zm-179.8 214.9" style="fill:none;stroke:#ff8b00;stroke-miterlimit:10;stroke-width:8px"/>
</svg>