<?xml version="1.0" encoding="utf-8"?>
<!-- Generator: Adobe Illustrator 24.2.3, SVG Export Plug-In . SVG Version: 6.00 Build 0)  -->
<svg version="1.1" id="Layer_1" xmlns="http://www.w3.org/2000/svg" xmlns:xlink="http://www.w3.org/1999/xlink" x="0px" y="0px"
	 viewBox="0 0 656.4 383.2" style="enable-background:new 0 0 656.4 383.2;" xml:space="preserve">
<path style="fill:none;stroke:#FF8B00;stroke-width:8;stroke-miterlimit:10;" d="M169,7.7c8,0,21.2,12.4,29.4,18.3
	c36.1,26.2,39.3,27.3,61.3,44.1c5,3.8,29.6,21.2,41.9,29.9c2.8,2,10.1,7.7,16,12.8c3.6,3.1,7,7.1,7.9,11.3
	c0.4,1.9,0.9,14.3,0.5,20.6c-0.5,6.9-2.5,22.1-3.3,29.6c-0.6,6-0.8,14.5-0.2,17.3c0.9,4.6,8.1,21.7,15.5,29.1
	c3,3,30.4,36.6,35.9,42.5c2.4,2.6,6.1,8.6,4.2,11.7c-5,8.4-13.7,8.3-18.5,9.7c-4.9,1.4-14,3.9-16.8,5.5c-2.7,1.5-9.3,5.6-9.3,9.5
	c0,3.2,2.1,6.8,4.6,8.9c1.8,1.5,8.6,3.6,21.1,6.7c10.1,2.5,25.1,4.8,31.9,4.6c1.7-0.1,5.6-0.3,9.2-2.5c5-3.1,22.2-23.9,24.8-27.7
	c2.2-3.2,92.5-108,94-109.9c2.5-3.2,11.4-13.7,30-34.2c4.2-4.6,9.9-12.5,9.9-22.3c0-3.3-2.1-10.6-4.5-14c-3.4-4.7-13-6.8-17-6.7
	c-5.7,0.1-18.9-1.1-22.4-2.3c-1.1-0.4-11.3-4.4-12.6-16.4c-0.6-6.1,2.7-13.2,6.5-16.4c1.8-1.5,8.6-4.8,17.4-3.7
	c4.6,0.6,29.5,12.8,38.4,16.8c16,7.2,32.7,22.6,36.9,28.2c4.3,5.8,10.3,12.6,14.9,29.7c2.3,8.5,6.2,47.5,8.7,66.9
	c3.3,26.1,7.4,68.2,8.7,82.5c0.4,4.8-1.9,15.4-5,19.9c-6.6,9.5-17.4,13.6-33,18.7c-20.4,6.7-30.5,10.2-49.8,13.4
	c-24.6,4.1-60.4,6.2-67.7,6.7c-3.9,0.3-19.5-0.3-26.3,1.7c-6.9,2-12.4,5.1-14.3,6.3c-5,3.2-16.4,9.6-21.9,11
	c-6.4,1.6-20.5-5.4-30.4-8.3c-15-4.4-22.8-4.6-29.8-2.9c-9.4,2.2-18.5,14.3-27.8,18c-3.3,1.3-11.1,5.9-24.1-2.2
	c-10.8-6.7-14.9-21.2-22.4-30.8c-7.6-9.7-11.3-12-23.5-18C243.5,314,56.5,224.2,29.7,199.3c-9.1-8.4-13.4-15.2-13.4-26.3
	c0-13.1,4.5-22.3,15.7-28.5c16.9-9.5,29-13.7,36.9-20.7c9-7.9,50.7-46.5,61-56.5c2-1.9,4.3-4.3,4-7.4c-0.5-5.8-11.7-10.3-13.5-17.7
	c-1.4-5.6,3.8-11.3,8.5-15C136.5,21.3,152.1,7.7,169,7.7z"/>
</svg>
