<svg id="Layer_1" data-name="Layer 1" xmlns="http://www.w3.org/2000/svg" viewBox="0 0 625.71 374.97"><path id="silverstone" d="M169,7.69c8,0,21.24,12.43,29.38,18.32,36.08,26.16,39.34,27.32,61.26,44.06,5,3.81,29.6,21.21,41.86,29.9,2.8,2,10.11,7.74,16,12.77,3.63,3.11,7,7.06,7.88,11.25.41,1.91.91,14.26.47,20.56-.47,6.93-2.47,22.12-3.25,29.59-.62,6-.77,14.53-.22,17.33.89,4.57,8.09,21.69,15.54,29.14,3,3,30.42,36.61,35.87,42.48,2.44,2.62,6.08,8.61,4.2,11.75-5,8.39-13.68,8.26-18.46,9.65s-14,3.93-16.79,5.46-9.33,5.56-9.33,9.54c0,3.22,2.09,6.82,4.59,8.94,1.81,1.54,8.55,3.55,21.11,6.69,10.07,2.52,25.07,4.83,31.89,4.62a18.49,18.49,0,0,0,9.23-2.52c5-3.15,22.17-23.91,24.76-27.69,2.2-3.22,92.52-108,94-109.94,2.47-3.18,11.38-13.71,30-34.2,4.2-4.61,9.94-12.54,9.91-22.34,0-3.34-2.06-10.59-4.46-14-3.36-4.72-13-6.82-17-6.72-5.67.15-18.94-1-22.45-2.31-1.12-.4-11.33-4.4-12.59-16.36-.64-6.06,2.73-13.22,6.51-16.36,1.84-1.54,8.6-4.83,17.39-3.75,4.61.56,29.55,12.76,38.41,16.75,16.05,7.24,32.73,22.56,36.93,28.22s10.27,12.65,14.9,29.69c2.3,8.5,6.21,47.47,8.7,66.93,3.35,26.12,7.45,68.18,8.71,82.52.42,4.77-1.89,15.35-5,19.86-6.64,9.53-17.4,13.6-33,18.74-20.36,6.72-30.51,10.25-49.8,13.43-24.61,4.06-60.42,6.19-67.69,6.71-3.9.28-19.54-.27-26.3,1.68a59.21,59.21,0,0,0-14.27,6.3c-5,3.21-16.41,9.59-21.88,11-6.37,1.62-20.49-5.42-30.43-8.32-15-4.37-22.75-4.61-29.79-2.93-9.37,2.24-18.52,14.34-27.83,18-3.34,1.32-11.06,5.87-24.06-2.24-10.77-6.71-14.85-21.15-22.38-30.77s-11.32-12-23.5-18C243.54,314,56.54,224.19,29.68,199.31c-9.09-8.42-13.44-15.23-13.42-26.29,0-13.13,4.54-22.27,15.66-28.54,16.91-9.52,29-13.7,36.93-20.7,9-7.88,50.71-46.5,61-56.5,2-1.91,4.28-4.31,4-7.45-.51-5.84-11.73-10.34-13.52-17.73-1.36-5.63,3.84-11.34,8.53-15C136.46,21.26,152.07,7.69,169,7.69Z" transform="translate(-12.26 -3.69)" style="fill:none;stroke:#ff8b00;stroke-miterlimit:10;stroke-width:8px"/></svg>