<svg id="Layer_1" data-name="Layer 1" xmlns="http://www.w3.org/2000/svg" viewBox="0 0 658.47 307.49"><path d="M226.75,44.69c23.75,6.58,41.92,20.24,45.62,22.9,15.74,11.36,27,23.33,42.26,41.88,8.06,9.82,19.4,21.13,33.29,48,7.87,15.23,12.25,23.49,24.19,47.94,9.91,20.3,17,29.22,26.32,37.61,12.39,11.16,28,22.07,40.84,25.94,4.91,1.48,12.2,3.71,13.1,7.09.71,2.65-3.79,9.38-9,22.33-2.45,6.13.6,11.89,5.42,15,7.48,4.77,13.22,7.83,22.64,7.74,13.42-.13,28.19-7.05,41.75-10.33,4-1,7.74-3.14,7.67-6.38-.19-9.81-7-15.59-4.71-23.74,1.73-6.06,14.84-11,36.33-17.29,23-6.78,50.91-16.08,57.35-18.71,5.88-2.41,16.18-6.3,19.36-5.87,1.59.21,8,12.11,13.93,23.61,4.88,9.4,9.68,16.77,9.68,21.55,0,5.16-41.94,16.25-145.42,50.06-6.68,2.18-15.8,5-28.26,5-20.26,0-53.35-17.2-76.64-27.87C367.27,295,274.62,254.86,271.1,251.7c-4.09-3.65,1.61-6.63,2.49-14.49,1.94-17.23-2.51-49.94-6.58-59.62-3.38-8.05-11.68-33.26-47.61-38.71-19.16-2.9-42.55,6.36-55.48,22.6-9.75,12.24-13.42,36.52-17.68,54.44-3.07,12.91-3.84,13.33-5,14.32C135.4,235.08,58,220.08,31.66,216.69,18.11,215,9.85,214,5,210.5c-4.07-2.91.34-13.36,5-33.29,8.71-37,12.39-44.31,14.9-48.2,4.13-6.37,34.6-33.8,39.29-34.45,2.81-.39,38.91,23,45.39,26.23,5.32,2.62,29.44,19.56,38.32,21,3.58.58,22.77-13.73,27.78-22.65C181,109.66,199.27,43.76,206.05,41,209.92,39.4,217.8,42.21,226.75,44.69Z" transform="translate(1.15 -36.02)" style="fill:none;stroke:#ff8b00;stroke-miterlimit:10;stroke-width:9px"/></svg>