<svg id="Layer_1" data-name="Layer 1" xmlns="http://www.w3.org/2000/svg" viewBox="0 0 646.39 414.35"><path id="spa" d="M264.58,90.28C271,87.57,403.84,29.66,423.83,20.12S453.06,6.87,474.77-2.32c2.89-1.22,12-7.7,22.36-7.7C510-10,509.41,3.78,522.61,5.89,533.9,7.69,551.4-6.83,565.48-7.46c9.65-.43,26.38,21.84,45.22,41.93C628.6,53.56,644.44,71.08,646,75c1.43,3.71.29,12.86-4.15,16.82-9.07,8.09-19.74,3.32-21.26,2C610.28,84.7,593.29,55,582.24,53.58c-12.7-1.67-29,17.57-82,33.49-11,3.28-47.47,15.29-63,20.1-5.56,1.73-14.7,9.18-19.26,20.93-3.29,8.5-3.59,35.85,6.06,49.79,15.34,22.19,29.82,22.36,51.76,28.32,14.4,3.92,62.36,14.93,78,19.4,6.58,1.88,14.23,11,15.55,17.85,1.73,8.89-3.08,13.63-6.21,26.37-1.81,7.4-1.11,17.72,6.79,24.85,6.13,5.54,49.88,22.78,66.6,32.91,4.6,2.79,6.84,9.07,4.74,14.93-2.34,6.57-21.46,44.59-29.49,49.27-18.64,10.86-49.61.26-70.73-10.88-12.78-6.75-41.3-28.54-50.18-38.53-11-12.42-26.92-36-38.92-52.88-11.52-16.2-20.76-24.55-34.37-33.74-6.65-4.48-48.77-18-61.11-20.51-10.55-2.11-20-4.07-28.88-.42-8,3.3-20,10.73-41.66,22.31-11.73,6.28-21,12.17-34.88,17.72-17.86,7.11-34,9.76-48.61,13.13-1.74.4-8.28,1.76-21.34,4.6-5.2,1.13-10.31,2.73-12.72.82-3-2.37.91-14.65-5.28-18-4.52-2.43-47.8,35-59.43,43.95C68.26,346.57,15,390.9,9.66,388c-4.6-2.51,2.4-18.22,6-28.74,5.13-14.95,3.65-16.58,17-45.76,4.61-10,19-31.55,47.58-61.94,16.78-17.83,38.78-43.25,41-46.74,4.87-7.61,5.44-17.57,14.18-25.65,6.27-5.81,13-8.5,23-12.48,9.22-3.67,13.72-2.47,20.28-7.77,4.67-3.78,27.29-23.26,58-49.23C241.63,105.55,254.76,94.43,264.58,90.28Z" transform="translate(-4.15 14.02)" style="fill:none;stroke:#ff8b00;stroke-miterlimit:10;stroke-width:8px"/></svg>