<svg id="Layer_1" data-name="Layer 1" xmlns="http://www.w3.org/2000/svg" viewBox="0 0 649.65 356.08"><defs><style>.cls-1{fill:none;stroke:#ff8b00;stroke-miterlimit:10;stroke-width:8px;}</style></defs><path id="suzuka" class="cls-1" d="M69,41.67c1.9,4.7,7.09,17,13.16,30.91,5.61,12.8,14.32,23.4,20.64,28.62,8.54,7,17.58,11.56,31.15,17.32,9.95,4.23,22.72,8.29,32.75,9.32,11,1.13,27.7-.51,34.44-2.34,9.66-2.63,22.73-13.93,25.15-16.7,6.38-7.32,23.51-34.64,26-39.41,3.94-7.6,9.19-9.17,13-6.92s3.84,8.83-1.35,17.61c-2.53,4.28-7.24,15.46-9.57,23.56-2.66,9.22,13,73.4,15.86,95.42.8,6.11,1.88,11.14,9.51,10.76,16.25-.82,38.91-2.37,45.16-3.5,5.5-1,25.81-29.62,30.36-34.67,7.3-8.12,13.72-15.56,24.14-21.31,15.87-8.75,26.12-8.89,34.58-9.45,5.38-.36,28.15,3.62,37.9,10.51,6.6,4.64,14.89,10.5,16.61,18.94,1.62,8,.22,14-4.85,27.47-4.23,11.26-6,14.51-4.23,23.82,1,5.18,8.13,13.4,11.87,15.71,7.25,4.51,16.38,5.06,27.14,4.88,7.64-.12,17.39,2.88,23.65,13.64,3.15,5.43,4.78,13.61,8.63,27.65,2.13,7.76,7.88,14.64,17.27,16.51,10.22,2.05,13.54,1,21.39,2.25,15.89,2.63,35,54.68,46.54,60.43,2.59,1.3,10.21,4.16,17.26,1.13,8.34-3.59,11.23-10.74,13.89-20,1.93-6.74,4.15-16.29.63-24.65-3.38-8-14.67-19.86-17.14-22.89C608.87,269.75,507.85,143.94,495.4,129.63c-4.24-4.88-18.2-19.14-35.28-23.65-7.48-2-21.21-4.81-29.46.75-7.46,5-16.62,11.8-19.71,12.76-6.67,2.09-10.69-9.94-15-10.13-3.43-.15-14.82,10.32-35,27.87-11,9.56-21.91,21-32.56,28.43C310,178.42,299,179.39,291.6,182.55c-4.13,1.76-12.38,1.76-18.76-.94-5.93-2.51-32.28-11.82-36.41-13-5.45-1.49-69.66-24.35-85.57-30.4-18.82-7.15-22.68-9.17-37.91-15-5.83-2.24-15.43-7-31.9-16.14C66,98.69,54.53,90.3,30.56,73.14,22,67,14.79,59.54,11.24,53.81c-1.38-2.22-6.72-16.51-.19-25.9,3.59-5.16,8.26-8.32,20.45-10.18,8.08-1.24,19.41-.62,24,1.55C61.9,22.28,67.11,37,69,41.67Z" transform="translate(-3.87 -13.1)"/></svg>