<svg version="1.2" xmlns="http://www.w3.org/2000/svg" viewBox="0 0 710 414" width="710" height="414">
	<title>image</title>
	<style>
		.s0 { fill: none;stroke: #ff8b00;stroke-miterlimit:100;stroke-width: 8 } 
	</style>
	<path id="форма 1" class="s0" d="m11.9 285.7c-1.7-0.9 8.8-52.7 18.7-60.6 11.5-9.2 40.2-21.7 50.8-25.3 13-4.3 27.4-14.6 40.6-26.7 21.5-19.7 5.4-156.2 13.5-160.3 9.7-4.9 21.1 15.1 33.3 14.2 12.1-0.9 8.5-8.7 12.9-15.2 4.4-6.5 44.6 0.8 59.3 17.2 7.8 8.7 11.3 16.1 12.8 28 1.6 12-1.3 62.8 3.2 66.4 4.4 3.5 115.2 0.2 115.2 0.2l176.9-3 37.5-0.9c0 0 25.5-3.8 31.6-15.2 13.2-24.3-6.9-45.6-13.5-60.2-2.7-6-5-22.4 12.5-25.8 11.7-2.3 29.2 33.6 53.9 58.2 7.1 7.1 21.6 27.5 23.2 39.1 2 14.5 0.5 102.4 0.5 102.4l-0.8 96.8c0 0-1 34.8-1.2 42.1-0.1 5.3-18.4 15.5-23.4 23.9-3.1 5.1 1.2 15.7-2 17.9-4.2 2.8-230.4 2.1-230.4 2.1l-166.8-0.7c0 0-38.7-2.7-59.1-10.3-27.5-10.2-105.8-51.3-105.8-51.3 0 0-53.1-34.4-63.9-41.3-8.1-5.3-26.2-9.8-29.5-11.7z"/>
</svg>