<svg id="Layer_1" data-name="Layer 1" xmlns="http://www.w3.org/2000/svg" viewBox="0 0 662.91 275.73"><defs><style>.cls-1{fill:none;stroke:#ff8b00;stroke-miterlimit:10;stroke-width:8px;}</style></defs><path id="yas_marina" data-name="yas marina" class="cls-1" d="M276.94,61.39c6,3.49,43.12,23.66,62.06,33.16,14.58,7.3,27.71,14.2,47.35,22.09,8.08,3.25,68.65,36.12,84.18,44.2,13.15,6.84,72.84,38.33,78.75,41.55,12.8,7,37.19,20.43,50.11,26.69,3.91,1.89,17.29,6.14,19.86,7.52,11.19,6,4.17,2.34,16.48,8.77,9.25,4.82,11.52,6,15.09,9.12A11.43,11.43,0,0,1,654,267.82c-2.23,5.36-6.37,8.3-14.2,8.76-6.67.4-59.07-3.15-90.32-3.15-18.59,0-33-2.91-42.09-6-10.77-3.63-26.85-11.89-34.12-15.21-11.93-5.43-22-6.29-30.42-4.44-4.8,1.06-15.22,6.63-17.89,8.77-7.48,6-11.22,11.75-16.83,23.85-4.39,9.47-6.34,14.54-12.45,22.1-6.67,8.24-24.07,9.26-31.75,9.47-4.38.12-38.58,2.28-46.65,2.46-4,.08-11.16,1.43-15.78-2.81s-4.35-11.07-4.21-14.38c.27-6.4,3.68-177.48,3.86-184.14.13-5-.18-10.18-6.31-13-1.07-.49-12.53-1-15.79,0-8.8,2.71-43.8,16.12-49.8,18.59-6.84,2.8-10.35,7.71-11.75,16-1.37,8-2.46,34.72-3.69,78.74-.15,5.51-3.2,15-7,17.89-5.61,4.21-11.53,2.34-21.41,1.55-10.57-.83-14.9-1.9-17.53-5.06-1-1.17-5.26-3.33-5.61-16.13-.23-8.61,2.47-24.79-.7-28.41-1.56-1.8-43.62-.56-48.75,2.8-5.31,3.47-31.92,32.27-35.22,39.12C76,228.38,59.63,298.86,56.3,305,46.76,322.56,39,322.57,31,323.94c-1,.17-17.19-1.06-23.85-8.07A25.12,25.12,0,0,1,.7,292.37c1.55-6.19,13.22-21,24.73-39.64,4.62-7.48,13.38-21.71,31.22-43.14,8.19-9.84,15.78-18.55,54.71-54.36,13.06-12,36.23-34.18,42.09-38.94A176.54,176.54,0,0,1,182.92,97c15-7.8,24.3-9.61,33.84-11.93,12.28-3,23.68-3,36.83-3.33,4.93-.13,5.8-2.61,5.79-6.14,0-4.91-1.75-18.23,3.16-19.29C265.34,55.71,271.4,58.18,276.94,61.39Z" transform="translate(4 -52.22)"/></svg>