<svg id="Layer_1" data-name="Layer 1" xmlns="http://www.w3.org/2000/svg" width="656.37" height="383.19" viewBox="0 0 656.37 383.19"><path d="M178.92,76.31a111,111,0,0,1,28.44,4c11,3.32,19,6.9,31.06,16.26,2.92,2.27,7.81,6.82,9.92,10.15,1,1.54,3.29,5.29,2.2,9.59-1.48,5.88-12,14.43-19.63,16.5-10.45,2.83-21.6,4.12-30.41,6.15-13.67,3.16-30.59,8.86-35.77,18.55a21.8,21.8,0,0,0,0,20.51c3.81,6.81,9,9.35,16.76,10.63,16.41,2.7,54.24,3.4,63.51,2.36,14.52-1.63,43.93-4.66,58.88-8.88,12.31-3.48,65.61-20.81,84.51-32.05,3.47-2.07,11.32-7.78,13.62-7.47,3.51.47,5.46,5.43,9,11.33,2.65,4.45,9.33,7.65,14.49,7.35,8.05-.47,15.64-7.67,14.62-15.88C437.38,123.57,427.6,72,425.65,59.79c-1.37-8.58-4.71-21.36-4.7-29.54C421,25,424,16.43,432.56,11.48c5.51-3.2,19.72-4.19,42.23-3.9,13.72.18,23.11,2.89,31.08,6.32,4.2,1.81,12.46,6.33,21.6,19.53,9.69,14,10.07,27.73,10.09,34.86,0,13.75-14.06,46.26-17.27,54.22-3.89,9.64-52.94,130.15-59.93,146.93-16.65,40-27.62,70.45-40.66,100.26-1.31,3-11.46,10.66-23.62,6.2-9.65-3.55-12-16.74-9.3-22.67,4.45-9.61,8.32-18.06,12.31-28.86,5.6-15.19,12.48-34.18,12.87-42.41.67-14.5.32-31.52,1.53-35.6A18.85,18.85,0,0,1,421.43,236c8-4.32,18.43-7.52,31.13-12.82,10.19-4.25,11.28-15.94,9.21-21.56-1.95-5.27-12.75-11.11-24.1-6.47-18.32,7.48-44.13,13.84-53.57,15.52-11.14,2-19.34,3.37-52.42-3.78-27.42-5.93-39.85-5.83-45.33-4.49a98.09,98.09,0,0,0-37.16,17.33c-9,6.62-15.82,11-27.53,14.07a75.94,75.94,0,0,1-18.15,2.93c-5.39.19-54.15-1.52-60.71-2.93-11.48-2.47-20-4.69-29.6-17.79-1.16-1.58-9.28-15.75-9.35-28.48,0-4.28,1.29-14.91,11.39-28.36,7.3-9.75,12.81-16.56,21-30.67,8-13.81,12.51-27.15,16.59-34.3,2.09-3.66,6.18-13.38,10.43-15.8C167.05,76.2,172.52,76.2,178.92,76.31Z" style="fill:none;stroke:#ff8b00;stroke-miterlimit:10;stroke-width:8px"/></svg>